<!--?xml version="1.0" encoding="utf-8"?-->
<!-- Generator: Adobe Illustrator 19.1.1, SVG Export Plug-In . SVG Version: 6.00 Build 0)  -->
<svg version="1.1" id="_x31_0" xmlns="http://www.w3.org/2000/svg" xmlns:xlink="http://www.w3.org/1999/xlink" x="0px" y="0px" viewBox="0 0 512 512" style="width: 256px; height: 256px; opacity: 1;" xml:space="preserve">
<style type="text/css">
	.st0{fill:#374149;}
</style>
<g>
	<path class="st0" d="M490.242,98.836H321.359v105.922c0,32.078-26.078,58.078-58.16,58.078h-14.398
		c-32.082,0-58.16-26-58.16-58.078V98.836H21.762c-12,0-21.762,9.762-21.762,21.762v287.598c0,12,9.762,21.766,21.762,21.766
		h468.481c12,0,21.758-9.766,21.758-21.766V120.598C512,108.598,502.242,98.836,490.242,98.836z M51.762,368.758v-79.679
		c0-12.961,15.68-19.438,24.879-10.242l79.602,79.602c9.117,9.121,2.637,24.883-10.321,24.883H66.32
		C58.242,383.321,51.762,376.758,51.762,368.758z" style="fill: rgb(102, 51, 14);"></path>
	<path class="st0" d="M248.801,236.68h14.398c17.602,0,32-14.242,32-31.922V91.875c0-5.438-4.398-9.836-9.84-9.836h-58.801
		c-5.438,0-9.758,4.398-9.758,9.836v112.882C216.801,222.438,231.039,236.68,248.801,236.68z M256,188.68
		c6.242,0,11.442,5.117,11.442,11.438c0,6.32-5.199,11.523-11.442,11.523c-6.398,0-11.442-5.203-11.442-11.523
		C244.558,193.797,249.602,188.68,256,188.68z" style="fill: rgb(102, 51, 14);"></path>
</g>
</svg>
