<!--?xml version="1.0" encoding="utf-8"?-->
<!-- Generator: Adobe Illustrator 19.1.1, SVG Export Plug-In . SVG Version: 6.00 Build 0)  -->
<svg version="1.1" id="_x31_0" xmlns="http://www.w3.org/2000/svg" xmlns:xlink="http://www.w3.org/1999/xlink" x="0px" y="0px" viewBox="0 0 512 512" style="width: 256px; height: 256px; opacity: 1;" xml:space="preserve">
<style type="text/css">
	.st0{fill:#374149;}
</style>
<g>
	<path class="st0" d="M36.484,329.879c-4.332,3.363-7.808,6.07-10.09,7.894c-9.434,7.555-18.382,16.191-14.851,31.07
		c1.652,6.981,5.102,12.426,10.805,17.187c4.816,3.989,11.57,6.356,18.098,6.356c0.426,0,0.855,0,1.285-0.027
		c5.469-0.258,10.461-2.168,14.422-5.504c1.707-1.454,8.692-7.981,23.114-21.461c2.488-2.348,5.234-4.914,7.981-7.493l1.762-1.531
		c-0.035-0.007-0.07-0.019-0.106-0.023c0.047-0.047,0.09-0.086,0.141-0.133C68.434,351.941,50.336,342.875,36.484,329.879z" style="fill: rgb(102, 51, 14);"></path>
	<path class="st0" d="M103.094,284.101l-0.797-0.082c-1.594-0.203-3.164-0.371-4.703-0.57c-0.312,0.226-0.625,0.484-0.942,0.711
		L96,284.644c-2.871,2.149-5.75,4.317-8.641,6.488l-1.148,0.782c0.023,0.012,0.046,0.019,0.07,0.031
		c-0.047,0.035-0.098,0.074-0.145,0.11c5.758,3.078,12.797,5.102,21.434,5.418c1.082,0.027,2.137,0.055,3.222,0.055
		c10.359,0,20.066-1.887,29.242-5.497c2.203-0.824,4.402-1.66,6.535-2.667l-0.274-0.035c0.094-0.047,0.195-0.078,0.293-0.126
		C130.145,287.265,115.238,285.528,103.094,284.101z" style="fill: rgb(102, 51, 14);"></path>
	<path class="st0" d="M442.222,212.531c-38.422,5.473-97.934,13.969-129.714,18.242c0.285,0.485,0.542,0.969,0.828,1.426
		c22.316,3.278,41.129,6.13,47.484,7.211c22.547,3.793,32.61,10.488,57.633,29.246c10.661-1.258,20.325-2.394,28.645-3.336
		c3.649-10.633,3.938-20.352,3.965-22.66c0.086-11.086-0.457-21.122-5.246-30.641C444.676,212.192,443.481,212.36,442.222,212.531z" style="fill: rgb(102, 51, 14);"></path>
	<path class="st0" d="M416.004,284.644l-0.629-0.484c-4.02-3.02-7.641-5.73-10.918-8.153c-1.168-0.882-2.277-1.711-3.359-2.48
		c-1.172-0.856-2.313-1.68-3.394-2.45c-15.39-11.058-23.602-14.992-39.25-17.617c-4.351-0.715-14.55-2.282-27.679-4.258
		c-2.492-0.406-5.047-0.828-7.726-1.273c0.027,0.046,0.05,0.078,0.078,0.121c-0.074-0.012-0.141-0.02-0.214-0.031
		c0.855,1.309,1.656,2.508,2.394,3.59c6.898,10.176,14.254,18.641,22.035,25.367c0.969,0.883,1.965,1.711,2.961,2.508
		c1.114,0.886,2.195,1.711,3.309,2.512c14.25,10.43,30.011,15.531,47.57,15.531c1.082,0,2.137-0.028,3.25-0.055
		c7.469-0.274,13.703-1.878,18.977-4.285c0.785-0.336,1.606-0.633,2.359-1.004l-0.066-0.051c0.051-0.031,0.114-0.05,0.164-0.078
		C422.558,289.574,419.282,287.097,416.004,284.644z" style="fill: rgb(102, 51, 14);"></path>
	<path class="st0" d="M256.125,259.699c-0.015,0.024-0.031,0.047-0.046,0.074c-0.028-0.046-0.066-0.11-0.094-0.156
		c-4.121,7.09-8.91,14.61-14.101,22.09c-0.922,1.278-1.825,2.703-2.75,3.918c0.019,0.004,0.062,0.007,0.082,0.011
		c-0.035,0.051-0.066,0.098-0.102,0.149c5.726,0.711,30.867,3.562,36.297,3.61c-5.446-7.578-12.172-17.79-17.082-25.891
		C257.578,262.215,256.746,260.84,256.125,259.699z" style="fill: rgb(102, 51, 14);"></path>
	<path class="st0" d="M69.918,212.559c-1.312-0.199-2.566-0.367-3.762-0.539c-4.789,9.519-5.332,19.554-5.273,30.641
		c0,2.281,0.312,12.027,3.961,22.66c10.973,1.254,24.23,2.82,39.106,4.558l0.828,0.086c0.398,0.059,0.797,0.086,1.195,0.145
		c1.34,0.141,2.738,0.313,4.133,0.485c1.371,0.171,2.766,0.312,4.191,0.484c15.25,1.793,32.41,3.789,50.336,5.898
		c7.782-6.754,15.137-15.191,22.035-25.394c0.711-1.054,1.508-2.254,2.363-3.562c0.656-1,1.313-2.055,2.027-3.164
		c0.625-1,1.282-2.082,1.938-3.164c1.726-2.778,3.543-5.844,5.367-9.016c0.363-0.582,0.711-1.16,1.082-1.742
		c-0.024-0.003-0.047-0.007-0.07-0.011c0.031-0.051,0.058-0.098,0.09-0.149C167.711,226.5,108.254,218.035,69.918,212.559z" style="fill: rgb(102, 51, 14);"></path>
	<path class="st0" d="M485.606,337.773c-2.282-1.824-5.758-4.558-10.118-7.922c-13.347,12.574-30.77,21.355-50.5,25.801
		c-0.656,0.137-1.293,0.316-1.953,0.445l0.07,0.066c-0.062,0.016-0.118,0.039-0.18,0.051c3.25,3.05,6.5,6.074,9.551,8.922
		l0.285,0.258c14.367,13.453,21.379,20.007,23.086,21.461c3.961,3.336,8.953,5.246,14.426,5.504
		c0.426,0.027,0.855,0.027,1.281,0.027c6.528,0,13.309-2.367,18.098-6.356c5.731-4.762,9.153-10.206,10.805-17.16
		C503.988,353.964,495.07,345.328,485.606,337.773z" style="fill: rgb(102, 51, 14);"></path>
	<path class="st0" d="M471.442,317.765c1.422-1.538,2.793-3.105,4.102-4.762c0.172-0.226,0.343-0.453,0.515-0.683
		c13.594-17.473,19.27-38.535,20.977-52.645c0.515-0.457,1-0.882,1.453-1.34L512,254.547l-4.246-56.863l-18.214-2.996
		c-1.629-0.282-2.672-0.531-3.422-0.726c-0.183-0.074-0.398-0.137-0.562-0.223c-0.031-0.05-0.054-0.106-0.09-0.16
		c-35.914-73.965-134.222-73.965-199.32-73.965c-5.133,0-10.234,0.027-15.336,0.054c-4.961,0-9.918,0.031-14.825,0.031
		c-4.902,0-9.859-0.031-14.847-0.031c-5.074-0.027-10.203-0.054-15.309-0.054h-0.511c-64.962,0-162.524,0.199-198.551,73.45
		l-0.222,1.202l-22.325,3.418l-4.16,56.293L0,254.547l0.398,0.114l10.519,2.965h0.028l2.359,0.664l1.504,0.531
		c0.106,0.906,0.214,1.836,0.382,2.824c0.398,2.906,1,6.098,1.77,9.461c1.782,7.73,4.766,16.367,8.989,24.93
		c0.129,0.254,0.262,0.508,0.39,0.762c1.621,3.219,3.453,6.375,5.5,9.508c0.554,0.852,1.141,1.692,1.734,2.535
		c0.973,1.383,1.785,2.821,2.851,4.164c1.598,2.024,3.309,3.965,5.102,5.817c0.656,0.683,1.34,1.367,2.027,2.023
		c0.684,0.656,1.395,1.34,2.106,1.965c13.942,12.543,32.637,20.722,53.871,23.629c1.226,0.172,2.453,0.344,3.707,0.458
		c1.254,0.144,2.535,0.258,3.82,0.343c3.305,0.258,6.668,0.398,10.09,0.398c32.266,0,68.234-18.015,96.254-48.226
		c0.226-0.23,0.43-0.457,0.625-0.714c0.457-0.454,0.859-0.91,1.258-1.395c0.57-0.598,1.11-1.199,1.626-1.824
		c0.938-1.054,1.851-2.137,2.762-3.222c0.398-0.485,0.801-0.969,1.199-1.454c1.766-2.164,3.504-4.359,5.156-6.554
		c12.344-16.246,22.149-33.465,28.45-45.66c0.511-0.086,1.027-0.172,1.539-0.23c0.484,0.058,0.968,0.113,1.453,0.199
		c6.301,12.199,16.106,29.445,28.446,45.691c0.656,0.883,1.339,1.738,2.023,2.621c0.683,0.883,1.367,1.738,2.082,2.622
		c0.738,0.942,1.512,1.855,2.278,2.766c2.023,2.453,4.137,4.847,6.274,7.156c0.285,0.313,0.57,0.625,0.855,0.91
		c2.68,2.851,5.414,5.586,8.234,8.21c25.824,24.086,56.782,38.422,85.11,39.078c0.687,0.027,1.371,0.027,2.054,0.027
		c2.766,0,5.473-0.086,8.18-0.258c3.191-0.199,6.359-0.512,9.465-0.942c21.207-2.906,39.902-11.086,53.84-23.629
		C468.106,321.215,469.817,319.531,471.442,317.765z M459.469,263.836c-0.286,1-0.57,1.996-0.883,2.996
		c-0.312,0.997-0.656,1.965-0.996,2.962c-0.402,1.129-0.882,2.254-1.347,3.382c-0.555,1.34-1.145,2.641-1.766,3.918
		c-1.047,2.16-2.219,4.285-3.531,6.363c-0.738,1.164-1.512,2.281-2.313,3.371c-0.715,0.98-1.406,1.976-2.191,2.918
		c-1.508,1.824-3.164,3.562-4.958,5.187c-1.769,1.626-3.706,3.137-5.758,4.563c-7.894,5.328-18.015,8.89-30.898,9.347
		c-1.222,0.058-2.422,0.086-3.648,0.086c-27.79,0-48.454-11.657-63.278-25.114c-0.938-0.824-1.82-1.68-2.707-2.535
		c-0.882-0.828-1.738-1.711-2.594-2.566c-7.098-7.238-12.598-14.649-16.73-20.718c-2.023-2.938-4.703-7.184-7.726-12.145
		c-1.481-2.481-3.047-5.129-4.645-7.867c-1.027-1.824-2.082-3.676-3.137-5.586c-0.426-0.742-0.851-1.511-1.254-2.281
		c-0.082-0.141-0.168-0.254-0.226-0.398c-0.485-0.91-0.969-1.797-1.454-2.68c-5.93-11.086-11.285-22.43-13.281-30.183
		c-4.278-16.446-4.246-26.566,13.534-33.035c11.118-4.047,20.723-5.446,35.375-5.446c5.328,0,11.317,0.199,18.297,0.485
		c26.336,1.171,50.195,2.426,79.41,21.55c12.114,7.922,19.61,16.187,24.258,24.57c0.512,0.883,0.942,1.738,1.367,2.621
		c0.458,0.91,0.856,1.825,1.254,2.734c4.476,10.778,4.902,21.664,4.816,32.383C462.434,248.219,461.664,255.8,459.469,263.836z
		 M207.531,239.582c-0.629,1.082-1.226,2.078-1.824,3.106v0.031c-0.657,1.082-1.282,2.106-1.883,3.133
		c-3.019,4.961-5.699,9.207-7.722,12.145c-4.133,6.07-9.637,13.48-16.73,20.718c-2.11,2.141-4.363,4.305-6.758,6.386
		c-2.45,2.164-5.07,4.274-7.836,6.242c-13.825,10.004-31.61,17.586-53.985,17.586c-1.226,0-2.426-0.028-3.648-0.086
		c-12.887-0.457-22.973-4.019-30.871-9.347c-0.824-0.543-1.625-1.141-2.422-1.742c-0.769-0.598-1.538-1.195-2.25-1.852
		c-5.73-4.902-10.035-10.828-13.254-17.042c-1.313-2.481-2.454-5.016-3.395-7.555c-0.969-2.508-1.766-5.015-2.449-7.469
		c-2.195-8.035-2.992-15.617-3.023-21.117c-0.055-10.719,0.37-21.637,4.874-32.383c0.914-2.25,2.024-4.504,3.363-6.726
		c1.286-2.191,2.794-4.386,4.532-6.554c4.534-5.645,10.687-11.23,18.957-16.645c29.214-19.125,53.07-20.379,79.406-21.55
		c6.957-0.286,12.969-0.485,18.301-0.485c14.621,0,24.258,1.398,35.37,5.446c17.786,6.469,17.786,16.59,13.539,33.035
		c-1.511,5.843-4.93,13.766-9.062,22.062c-1.113,2.222-2.281,4.504-3.508,6.754c-1.168,2.25-2.39,4.504-3.648,6.726
		C210.238,234.852,208.871,237.273,207.531,239.582z" style="fill: rgb(102, 51, 14);"></path>
</g>
</svg>
