<!--?xml version="1.0" encoding="utf-8"?-->
<!-- Generator: Adobe Illustrator 19.1.1, SVG Export Plug-In . SVG Version: 6.00 Build 0)  -->
<svg version="1.1" id="_x31_0" xmlns="http://www.w3.org/2000/svg" xmlns:xlink="http://www.w3.org/1999/xlink" x="0px" y="0px" viewBox="0 0 512 512" style="width: 256px; height: 256px; opacity: 1;" xml:space="preserve">
<style type="text/css">
	.st0{fill:#374149;}
</style>
<g>
	<path class="st0" d="M475.436,325.222v-80.749c0-8.445-6.714-15.323-15.105-15.57l-24.952,8.886
		c3.961,23.522-1.293,47.403-14.858,67.21c-0.961,1.461-1.98,2.863-3.054,4.266c-10.316,13.425-23.741,23.522-38.9,29.576
		l3.961,66.77c0.551,8.886-3.77,14.858-6.382,17.636c-2.613,2.754-8.198,7.319-16.921,7.429h-2.75h-2.75h-63.582
		c-3.274,16.398-17.8,28.83-35.158,28.83c-17.39,0-31.916-12.433-35.216-28.83h-68.726c-2.394,0-4.566-0.332-6.519-0.91
		c-0.992-0.246-1.898-0.578-2.75-0.961c-0.993-0.414-1.898-0.882-2.754-1.374c-2.335-1.406-4.07-2.946-5.198-4.183
		c-2.614-2.778-6.934-8.778-6.41-17.636l3.96-66.77c-15.159-6.054-28.584-16.151-38.9-29.576c-1.074-1.402-2.094-2.805-3.054-4.266
		c-13.702-19.998-18.901-44.158-14.69-67.898l-23.084-8.198c-8.363,0.246-15.078,7.125-15.078,15.57v80.749h38.217v16.506H36.958
		h-0.234l0,0h-0.16v49.99c0,25.311,6.355,67.102,47.654,70.347c0.273,0.965,0.578,1.898,0.906,2.836
		c0.305,0.961,0.661,1.898,1.047,2.804C96.24,493.54,121.383,512,151.042,512h207.854c29.631,0,54.746-18.433,64.843-44.239h0.028
		c0.359-0.906,0.714-1.84,1.019-2.778c0.328-0.906,0.633-1.843,0.879-2.777h0.027c43.196-2.012,49.743-44.763,49.743-70.488v-49.99
		h-38.142h-0.07v-16.506H475.436z" style="fill: rgb(128, 128, 0);"></path>
	<path class="st0" d="M344.15,323.34c2,0,3.922-0.078,5.922-0.238c1.199-0.082,2.398-0.16,3.68-0.321
		c0.882-0.16,1.839-0.32,2.718-0.48c0.961-0.16,1.843-0.321,2.722-0.481c6.32-1.438,12.319-3.601,17.999-6.64
		c8.718-4.558,16.558-11.117,22.799-19.276c11.277-14.64,16.237-32.639,14.238-50.638c-0.161-0.879-0.238-1.84-0.398-2.722
		c-0.161-0.957-0.321-1.84-0.481-2.797c-0.32-1.602-0.718-3.281-1.121-4.961l-17.038-63.918h-28.869h-0.09l0,0h-0.16v9.202
		c0,11.839-9.679,21.518-21.518,21.518h-14.237c-11.843,0-21.441-9.679-21.441-21.518v-9.202h-14.37l-4.438-0.047
		c0.008,0.016,0.008,0.031,0.012,0.047h-0.164c0.64,1.999,0.961,4.082,0.961,6.242v135.191h-16.558V177.11
		c0-2.402-1.922-4.32-4.32-4.32h-30.081c-2.398,0-4.32,1.918-4.32,4.32v135.191h-16.558V177.11c0-1.855,0.336-3.637,0.825-5.374
		c0.086-0.234,0.117-0.473,0.214-0.707h-0.039c0.016-0.051,0.024-0.106,0.039-0.16h-18.741h-0.058l0,0h-0.161v9.202
		c0,11.839-9.678,21.518-21.518,21.518h-14.159c-11.918,0-21.518-9.679-21.518-21.518v-9.202h-29.119l-17.117,63.918
		c-0.32,1.438-0.64,2.878-0.961,4.32c-0.16,0.879-0.32,1.84-0.48,2.718c-0.16,0.961-0.321,1.84-0.398,2.801
		c-2.242,18.159,2.718,36.396,14.077,51.278c6.32,8.159,14.082,14.718,22.878,19.276c2,1.121,4.082,2.082,6.242,2.961
		c0.878,0.398,1.758,0.718,2.718,1.039c0.882,0.402,1.839,0.64,2.718,0.961c4.961,1.602,10.163,2.558,15.362,2.961
		c2,0.16,4,0.238,5.918,0.238h16.331l10.78,0.105c-2.995,3.18-5.53,6.82-7.35,10.937c-1.442,3.438-2.481,7.117-2.879,11.038h-16.882
		c-2.398,0-4.801-0.082-7.199-0.32l-3.238,54.657l-0.203,3.258h0.012l-0.012,0.16h63.918v-42.396c1.52-2.64,2.558-5.601,2.961-8.8
		h13.597v71.598c0,2.558,0.481,4.878,1.36,7.117c2.8,7.202,9.839,12.319,17.998,12.319c8.16,0,15.198-5.117,18.081-12.319
		c0.879-2.238,1.282-4.558,1.282-7.117v-71.598h16.558v51.196h60.457l3.297,0.008v-0.008h0.16l-1.038-18.639l-2.305-37.857
		l-0.078-1.422c-0.004,0-0.004,0.004-0.004,0.004l-0.011-0.16c-2.402,0.238-4.801,0.32-7.203,0.32h-13.358
		c-0.398-3.922-1.359-7.601-2.878-11.038c-1.398-3.308-3.402-6.222-5.652-8.921c-0.539-0.703-1-1.422-1.586-2.121H344.15z
		 M256.718,383.496c-6.48,0-11.761-5.281-11.761-11.757c0-6.48,5.281-11.761,11.761-11.761c6.48,0,11.758,5.281,11.758,11.761
		C268.476,378.215,263.198,383.496,256.718,383.496z M256.718,230.306c-6.48,0-11.761-5.199-11.761-11.761
		c0-6.477,5.281-11.679,11.761-11.679c6.48,0,11.758,5.202,11.758,11.679C268.476,225.107,263.198,230.306,256.718,230.306z
		 M256.718,261.746c6.48,0,11.758,5.277,11.758,11.758c0,6.48-5.278,11.761-11.758,11.761c-6.48,0-11.761-5.281-11.761-11.761
		C244.958,267.022,250.238,261.746,256.718,261.746z M193.523,349.018c0-1.199,0.078-2.48,0.238-3.598
		c0.562-4.082,2.082-7.839,4.32-11.038c4.32-6.163,11.198-10.402,19.12-11.042h79.034c7.999,0.64,14.878,4.878,19.198,11.042
		c2.242,3.199,3.762,6.957,4.32,11.038c0.16,1.118,0.242,2.398,0.242,3.598v12.8h-4.882c-7.039,0-12.796-5.758-12.796-12.8
		c0-1.277-0.321-2.558-0.883-3.598c-1.281-2.64-4-4.402-7.198-4.402h-75.195c-3.038,0-5.679,1.762-7.038,4.402
		c-0.48,1.039-0.882,2.321-0.882,3.598c0,7.042-5.679,12.8-12.718,12.8h-4.878V349.018z" style="fill: rgb(128, 128, 0);"></path>
	<path class="st0" d="M96.01,155.752c0.718,0,1.519,0.078,2.238,0.078h45.677V28.717c0-11.839,9.601-21.518,21.518-21.518h14.159
		c11.839,0,21.518,9.679,21.518,21.518V155.83h107.755V28.717c0-11.839,9.598-21.518,21.441-21.518h14.237
		c11.839,0,21.518,9.679,21.518,21.518V155.83h45.599c0.797,0,1.519-0.078,2.238-0.078c27.038-2.562,39.357-41.521,39.357-77.835
		C453.265,40.4,440.066,0,411.107,0H98.728C69.851,0,56.653,40.4,56.653,77.917C56.653,114.231,68.968,153.272,96.01,155.752z
		 M278.397,73.918l-3.121,12.398c-0.32,1.441-1.679,2.48-3.199,2.48h-34.318c-1.519,0-2.8-1.039-3.198-2.48l-3.039-12.398
		c-0.562-2.082,1.039-4.082,3.199-4.082h40.478C277.358,69.835,278.878,71.835,278.397,73.918z" style="fill: rgb(128, 128, 0);"></path>
	<path class="st0" d="M179.63,185.551c3.023,0,5.499-2.477,5.499-5.503v-1.898v-11.39v-3.629v-6.987V121.09v-11.003V99.08V28.733
		c0-3.027-2.476-5.504-5.499-5.504h-14.226c-3.027,0-5.504,2.477-5.504,5.504V99.08v11.007v11.003v35.053v6.987v3.629v11.39v1.898
		c0,3.026,2.477,5.503,5.504,5.503H179.63z" style="fill: rgb(128, 128, 0);"></path>
	<path class="st0" d="M344.534,185.551c3.054,0,5.503-2.477,5.503-5.503v-1.898v-11.39v-3.629v-6.987V121.09v-11.003V99.08V28.733
		c0-3.027-2.449-5.504-5.503-5.504h-14.194c-3.054,0-5.504,2.477-5.504,5.504V99.08v11.007v11.003v35.053v6.987v3.629v11.39v1.898
		c0,3.026,2.45,5.503,5.504,5.503H344.534z" style="fill: rgb(128, 128, 0);"></path>
</g>
</svg>
