<!--?xml version="1.0" encoding="utf-8"?-->
<!-- Generator: Adobe Illustrator 19.1.1, SVG Export Plug-In . SVG Version: 6.00 Build 0)  -->
<svg version="1.1" id="_x31_0" xmlns="http://www.w3.org/2000/svg" xmlns:xlink="http://www.w3.org/1999/xlink" x="0px" y="0px" viewBox="0 0 512 512" style="width: 256px; height: 256px; opacity: 1;" xml:space="preserve">
<style type="text/css">
	.st0{fill:#374149;}
</style>
<g>
	<path class="st0" d="M37.308,226.386c-0.015,0.008-0.027,0.016-0.043,0.02l-0.011-0.168c-19.961,7.496-32.821,28.922-30.426,53.738
		l12.535,129.996c2.122,21.977,17.586,40.301,36.997,46.582L41.3,275.031L37.308,226.386z" style="fill: rgb(128, 128, 0);"></path>
	<path class="st0" d="M489.816,235.906c-0.489-0.469-0.906-1.008-1.414-1.454c-0.984-0.859-2.09-1.55-3.144-2.324
		c-1.102-0.812-2.145-1.699-3.325-2.414c-0.336-0.199-0.714-0.329-1.054-0.52c-1.918-1.09-3.871-2.133-5.969-2.945l-0.004,0.062
		c-0.054-0.02-0.102-0.055-0.156-0.074l-19.106,230.316c19.41-6.281,34.871-24.605,36.992-46.582l12.539-129.996
		C506.89,262.234,500.714,246.332,489.816,235.906z" style="fill: rgb(128, 128, 0);"></path>
	<path class="st0" d="M88.453,218.313h0.148c18.192,2.426,34.41,14,43.668,31.14c0.157,0.274,0.321,0.598,0.477,0.922
		c6.957,13.55,19.734,21.894,33.379,21.894c13.652,0,25.847-8.344,31.91-21.894c1.297-2.93,2.856-5.695,4.626-8.29
		c0.027-0.031,0.05-0.074,0.078-0.109c-0.004,0-0.008-0.004-0.011-0.004c0.031-0.043,0.046-0.098,0.078-0.141
		c-12.203-5.699-23.836-13.621-34.484-23.738l-8.383-7.918c-21.953-20.942-47.851-39.93-80.606-59.094
		c-3.562-2.102-7.137-4.203-10.859-6.317c-0.004,0.019-0.004,0.043-0.008,0.062c-0.054-0.031-0.102-0.058-0.152-0.09
		c-1.176,7.035-1.535,14.098-1.039,21.176l2.867,40.98l0.582,8.328l0.179,2.539h10.352C83.66,217.762,86.073,217.926,88.453,218.313
		z" style="fill: rgb(128, 128, 0);"></path>
	<path class="st0" d="M144.831,391.797h-6.878h-1.973c-1.926,0-3.707-0.82-5.016-2.168c-1.304-1.309-2.133-3.098-2.234-5.082
		l-2.902-56.516c-0.105-2.078,0.551-3.961,1.754-5.34c1.203-1.422,2.949-2.293,4.934-2.293h2.027h7.074h5.457l0.234,0.008
		l-0.004-0.008h0.164l-1.106-25.863c-2.086-0.785-4.078-1.668-6.031-2.766c-2.542-1.301-5-2.82-7.374-4.547
		c-2.622-1.832-5.118-3.93-7.481-6.191c-5.254-5.164-9.855-11.305-13.562-18.278c-5.629-10.714-16.957-17.671-28.855-17.671h-9.454
		l-0.633-0.012v0.012h-0.16l14.957,213.754l0.477,6.82l0.477,6.786l0.652,9.343C90.546,498.535,104.831,512,121.277,512h34.367
		l-5.133-120.203H144.831z" style="fill: rgb(128, 128, 0);"></path>
	<path class="st0" d="M312.753,391.797c-3.805,0-6.813-3.234-6.73-7.25l1.144-56.516c0.082-4.214,3.313-7.633,7.226-7.633h18.539
		l0.699-23.11c-17.714-3.691-32.992-16.152-41.355-34.535c-2.484-5.558-6.641-10.066-11.699-13.137
		c-4.726-2.914-10.199-4.534-15.934-4.534h-17.289c-6.458,0-12.61,2.054-17.672,5.664c-4.274,2.961-7.754,7.094-10.004,12.007
		c-8.367,18.383-23.645,30.844-41.355,34.535l0.695,23.11h18.586c3.871,0,7.145,3.418,7.23,7.633l1.141,56.516
		c0.082,4.015-2.973,7.25-6.73,7.25h-17.371l-0.531-0.004v0.004h-0.16L184.824,512h142.312l3.535-116.848l0.102-3.195h-0.004
		l0.004-0.16H312.753z" style="fill: rgb(128, 128, 0);"></path>
	<path class="st0" d="M443.073,141.199c-0.023,0.012-0.043,0.023-0.062,0.039c-0.016-0.058-0.016-0.118-0.027-0.172
		c-1.531,0.988-3.114,1.981-4.738,2.855c-38.778,21.649-68.297,42.723-92.922,66.254l-8.363,7.918
		c-8.641,8.242-17.989,14.977-27.696,20.29c-0.55,0.289-1.086,0.633-1.644,0.914c0.007,0.008,0.007,0.012,0.015,0.02
		c-0.046,0.023-0.094,0.054-0.141,0.078c2.555,3.363,4.715,7.039,6.473,10.981c6.016,13.55,18.211,21.894,31.906,21.894
		c13.653,0,26.422-8.344,33.379-21.894c0.16-0.325,0.32-0.649,0.48-0.922c9.207-17.195,25.527-28.766,43.817-31.195
		c0.05,0,0.05,0,0.098,0c2.328-0.332,4.742-0.496,7.098-0.496h10.355l0.18-2.539l0.582-8.328l2.867-40.98
		c0.477-6.821-0.027-13.688-1.125-20.465C443.401,144.039,443.331,142.59,443.073,141.199z" style="fill: rgb(128, 128, 0);"></path>
	<path class="st0" d="M428.941,245.082c-11.898,0-23.274,6.957-28.851,17.671c-3.711,6.973-8.313,13.114-13.562,18.278
		c-2.364,2.262-4.86,4.359-7.481,6.191c-2.379,1.727-4.832,3.246-7.375,4.547c-1.953,1.098-3.996,1.981-6.082,2.816l-1.051,24.68
		l-0.05,0.977h0.007l-0.007,0.156h5.898h7.07h2.031c1.98,0,3.73,0.871,4.93,2.293c1.203,1.379,1.859,3.262,1.754,5.34l-2.902,56.516
		c-0.102,1.984-0.926,3.773-2.234,5.082c-1.305,1.348-3.086,2.168-5.015,2.168h-1.969h-6.875h-5.734l-4.91,115.125l-0.214,4.918
		h0.004l-0.004,0.16h34.363c16.446,0,30.778-13.465,31.949-30.215l0.653-9.343l0.477-6.786l0.476-6.82l13.887-198.485l1.07-15.109
		h-0.012l0.012-0.16H428.941z" style="fill: rgb(128, 128, 0);"></path>
	<polygon class="st0" points="190.921,335.617 179.48,335.617 148.117,335.617 142.3,335.617 140.519,335.617 140.445,335.61 
		140.445,335.617 140.285,335.617 142.191,377.254 144.175,377.254 149.89,377.254 180.742,377.254 191.995,377.254 	" style="fill: rgb(128, 128, 0);"></polygon>
	<polygon class="st0" points="367.827,377.254 369.812,377.254 371.625,337.586 371.714,335.774 371.71,335.774 371.714,335.617 
		369.698,335.617 363.839,335.617 332.472,335.617 321.078,335.617 320.034,376.058 320.003,377.094 320.011,377.094 
		320.003,377.254 331.214,377.254 362.061,377.254 	" style="fill: rgb(128, 128, 0);"></polygon>
	<path class="st0" d="M394.023,0H110.648C95.808,0,82.32,7.035,72.745,19.855c-9.082,12.106-13.566,27.91-12.746,44.633
		c0.004,0.695,0.055,1.391,0.106,2.082c0.656,8.699,2.726,17.113,5.977,24.789c0.519,1.223,1.246,2.301,1.824,3.481
		c0.606,1.238,1.246,2.457,1.918,3.652c1.324,2.356,2.766,4.602,4.336,6.77c0.726,1.008,1.484,2.004,2.273,2.981
		c0.828,1.027,1.516,2.175,2.406,3.148l0.254,0.278c4.347,4.734,9.246,8.676,14.534,11.668
		c38.817,22.039,68.528,43.645,93.637,67.93l7.715,7.519c33.226,32.172,82.07,32.172,115.214,0l7.699-7.519
		c25.047-24.285,54.7-45.89,93.466-67.93c5.281-2.992,10.168-6.934,14.503-11.668c1.946-2.121,3.758-4.418,5.442-6.77
		c4.485-6.414,8-13.598,10.324-21.328c1.641-5.434,2.676-11.118,3.106-17c0.238-3.297,0.278-6.485,0.122-9.687
		c-0.746-13.875-5.149-26.766-12.879-37.028C422.37,7.035,408.862,0,394.023,0z M204.335,44.902
		c-1.066,2.114-1.953,4.398-2.957,6.582c-0.492,1.07-0.977,2.149-1.461,3.25c-1.047,2.382-2.211,4.664-3.188,7.09
		c-2.695,6.481-5.133,13.215-7.262,20.145c-2.961,9.332-5.465,19.054-7.461,28.973c-0.527,2.699-0.961,5.406-1.414,8.113
		c-0.254,1.301-0.489,2.586-0.758,3.895c-17.438-14.11-36.84-27.586-59.023-40.981c-3.914-2.398-7.883-4.75-11.957-7.102
		c-1.294-0.746-2.504-1.722-3.582-2.93c-2.375-2.711-3.922-6.058-4.386-9.824c-0.074-0.406-0.102-0.871-0.129-1.336
		c-0.254-4.301,0.87-8.207,3.214-11.254c2.348-3.106,5.516-4.691,9.114-4.691h62.808L204.335,44.902z" style="fill: rgb(128, 128, 0);"></path>
</g>
</svg>
