<!--?xml version="1.0" encoding="utf-8"?-->
<!-- Generator: Adobe Illustrator 18.1.1, SVG Export Plug-In . SVG Version: 6.00 Build 0)  -->

<svg version="1.1" id="_x31_0" xmlns="http://www.w3.org/2000/svg" xmlns:xlink="http://www.w3.org/1999/xlink" x="0px" y="0px" viewBox="0 0 512 512" style="width: 256px; height: 256px; opacity: 1;" xml:space="preserve">
<style type="text/css">
	.st0{fill:#374149;}
</style>
<g>
	<path class="st0" d="M492.481,126.941H19.519C8.801,126.941,0,135.742,0,146.461v106.16h199.313h0.609l0,0h0.161V221.82
		c0-8.797,7.199-16,16-16h79.839c8.879,0,16,7.203,16,16v30.801H512v-106.16C512,135.742,503.203,126.941,492.481,126.941z" style="fill: rgb(17, 17, 77);"></path>
	<path class="st0" d="M311.922,311.422c0,8.801-7.121,16-16,16h-79.839c-8.801,0-16-7.199-16-16v-30.801H0V450.3
		c0,10.641,8.801,19.52,19.519,19.52h472.962c10.722,0,19.519-8.879,19.519-19.52V280.621H311.922V311.422z" style="fill: rgb(17, 17, 77);"></path>
	<path class="st0" d="M188.668,101.738c2.718,0,5.234-1.449,6.594-3.805l14.129-24.402c1.325-2.289,3.77-3.699,6.414-3.699h80.406
		c2.644,0,5.09,1.41,6.414,3.699l14.129,24.402c1.363,2.356,3.875,3.805,6.594,3.805h39.648L314.55,42.18H197.465l-29.676,36.484
		l-18.77,22.914h0.133l-0.133,0.16H188.668z" style="fill: rgb(17, 17, 77);"></path>
	<polygon class="st0" points="279.922,252.621 279.922,237.82 232.082,237.82 232.082,252.621 232.082,280.621 232.082,295.422 
		279.922,295.422 279.922,280.621 	" style="fill: rgb(17, 17, 77);"></polygon>
</g>
</svg>
