<!--?xml version="1.0" encoding="utf-8"?-->
<!-- Generator: Adobe Illustrator 19.1.1, SVG Export Plug-In . SVG Version: 6.00 Build 0)  -->
<svg version="1.1" id="_x31_0" xmlns="http://www.w3.org/2000/svg" xmlns:xlink="http://www.w3.org/1999/xlink" x="0px" y="0px" viewBox="0 0 512 512" style="width: 256px; height: 256px; opacity: 1;" xml:space="preserve">
<style type="text/css">
	.st0{fill:#374149;}
</style>
<g>
	<path class="st0" d="M512,205.162c-0.047,0.082-0.098,0.161-0.141,0.238v-0.312c-25.505,46.886-75.233,78.806-132.237,78.806
		h-65.361v-18.171h65.302c73.066,0,132.295-59.234,132.295-132.295v-2.546c0-11.173-9.06-20.233-20.233-20.233h-37.919v-15.87
		c0-3.632-2.972-6.604-6.603-6.604h-49.67c-3.616,0-6.545,2.929-6.545,6.546v15.929H348.67V74.304
		c0-17.788-14.554-32.346-32.346-32.346H195.594c-17.788,0-32.346,14.558-32.346,32.346v36.346H121.03v-15.87
		c0-3.632-2.972-6.604-6.604-6.604h-49.67c-3.617,0-6.546,2.929-6.546,6.546v15.929H20.233C9.056,110.649,0,119.709,0,130.882v2.546
		c0,73.062,59.23,132.295,132.296,132.295h65.322h0.039v18.171h-65.361c-46.362,0-87.882-21.073-115.5-54.118
		c-0.746-0.898-1.437-1.847-2.163-2.765c-1.199-1.503-2.414-2.999-3.554-4.55c-3.999-5.486-7.65-11.286-10.919-17.374v0.27
		c-0.05-0.09-0.11-0.18-0.16-0.27v179.548c0,47.167,38.235,85.406,85.406,85.406h341.106c47.135,0,85.347-38.212,85.347-85.348
		V289.1L512,205.162z M187.48,74.304c0-4.483,3.635-8.114,8.114-8.114h120.729c4.483,0,8.115,3.631,8.115,8.114v36.346H187.48
		V74.304z M290.034,229.378v36.346v18.171v28.774c0,3.089-2.484,5.572-5.573,5.572h-57.062c-3.03,0-5.514-2.483-5.514-5.572v-28.774
		v-18.171v-36.346c0-3.089,2.484-5.572,5.514-5.572h57.062C287.55,223.806,290.034,226.289,290.034,229.378z" style="fill: rgb(0, 0, 0);"></path>
</g>
</svg>
