<!--?xml version="1.0" encoding="utf-8"?-->
<!-- Generator: Adobe Illustrator 19.1.1, SVG Export Plug-In . SVG Version: 6.00 Build 0)  -->
<svg version="1.1" id="_x31_0" xmlns="http://www.w3.org/2000/svg" xmlns:xlink="http://www.w3.org/1999/xlink" x="0px" y="0px" viewBox="0 0 512 512" style="width: 256px; height: 256px; opacity: 1;" xml:space="preserve">
<style type="text/css">
	.st0{fill:#374149;}
</style>
<g>
	<path class="st0" d="M445.512,371.011l-12.805-196.738c0-0.742-0.082-1.484-0.164-2.23c-8.508-21.058-24.199-42.781-45.758-62.606
		c-0.164-0.164-0.246-0.246-0.41-0.328c-15.614-14.375-36.59-29.324-57.402-37.582c-10.078-4.046-20.157-6.527-29.489-6.527h-86.973
		c-9.332,0-19.406,2.481-29.484,6.527c-20.73,8.258-41.711,23.207-57.402,37.582c-0.082,0.082-0.25,0.164-0.414,0.328
		c-21.473,19.825-37.25,41.629-45.758,62.688c-0.082,0.746-0.164,1.406-0.164,2.148L66.488,371.011
		c-1.902,37.086,10.984,72.356,36.176,99.278C127.856,497.215,161.965,512,198.637,512H313.36c36.672,0,70.786-14.785,95.977-41.711
		C434.61,443.367,447.411,408.098,445.512,371.011z M220.082,175.976l0.023-0.023l0.09,0.137l18.254-18.336
		c9.746-9.66,25.438-9.66,35.102,0l26.844,26.844c9.664,9.746,9.664,25.441,0,35.102l-26.844,26.843
		c-9.664,9.664-25.355,9.664-35.102,0l-26.844-26.843c-9.664-9.661-9.664-25.356,0-35.102l1.653-1.566l-1.406,0.906l-24.449-38.82
		l9.5-6.027l18.957,30.117L220.082,175.976z M199.793,412.391c-17.094,0-32.458-13.625-35.02-30.973l-11.398-76.48
		c-0.824-5.367,0.742-10.821,4.297-14.95c3.551-4.129,8.672-6.523,14.122-6.523h168.41c5.453,0,10.656,2.394,14.125,6.523
		c3.551,4.129,5.121,9.582,4.375,14.95l-11.481,76.48c-2.558,17.348-18.004,30.973-35.019,30.973H199.793z M192.441,196.078
		l-9.496,5.95l-24.367-38.738l9.5-6.031l24.254,38.644L192.441,196.078z M178.98,142.308l-16.683-26.594l18.996-11.977
		l16.766,26.598L178.98,142.308z M152.468,121.828l16.684,26.594l-19,11.976l-16.766-26.594L152.468,121.828z" style="fill: rgb(128, 128, 0);"></path>
	<path class="st0" d="M455.751,416.43c-0.414-0.531-0.875-1.102-1.246-1.602c-0.012,0.035-0.023,0.07-0.031,0.106
		c-0.039-0.047-0.086-0.098-0.125-0.145c-6.028,23.867-18.004,46.004-35.352,64.504c-8.754,9.332-18.5,17.344-28.906,23.954
		l47.906-14.043c0,0,18.832-18.746,30.558-58.723C463.754,425.824,459.555,421.008,455.751,416.43z" style="fill: rgb(128, 128, 0);"></path>
	<path class="st0" d="M93,479.293c-14.793-15.781-25.644-34.16-32.266-54.082c-1.109-3.406-2.121-6.84-2.961-10.321
		c-0.019,0.023-0.05,0.058-0.07,0.082c-0.015-0.062-0.039-0.122-0.054-0.184c-4.129,5.039-8.836,10.489-14.203,15.691
		c11.726,39.977,30.558,58.723,30.558,58.723l47.906,14.043C111.418,496.637,101.754,488.625,93,479.293z" style="fill: rgb(128, 128, 0);"></path>
	<path class="st0" d="M204.543,347.328l-17.672-0.023v0.023h-0.16l4.481,30.133c0.679,4.57,5.27,8.242,8.617,8.242h112.395
		c3.347,0,7.918-3.672,8.594-8.242l3.926-26.25l0.578-3.722h-0.024l0.024-0.16H204.543z" style="fill: rgb(128, 128, 0);"></path>
	<path class="st0" d="M237.418,196.14h37.176c1.66,0,2.996-1.336,2.996-2.996v-7.129c0-1.66-1.336-2.996-2.996-2.996h-37.176
		c-1.66,0-2.992,1.336-2.992,2.996v7.129C234.426,194.804,235.758,196.14,237.418,196.14z" style="fill: rgb(128, 128, 0);"></path>
	<path class="st0" d="M237.418,221.289h37.176c1.66,0,2.996-1.336,2.996-2.996v-7.129c0-1.665-1.336-2.997-2.996-2.997h-37.176
		c-1.66,0-2.992,1.332-2.992,2.997v7.129C234.426,219.953,235.758,221.289,237.418,221.289z" style="fill: rgb(128, 128, 0);"></path>
	<path class="st0" d="M384.473,506.55c1.902-0.992,3.801-2.148,5.617-3.304l-1.156,0.332L384.473,506.55z" style="fill: rgb(128, 128, 0);"></path>
	<path class="st0" d="M121.91,503.246c2.313,1.488,4.703,2.89,7.102,4.21c-1.984-1.238-3.965-2.558-5.949-3.878L121.91,503.246z" style="fill: rgb(128, 128, 0);"></path>
	<path class="st0" d="M102.285,110.663c4.086-4.374,8.438-8.679,13.031-12.878c8.789-8.047,33.41-29.106,61.902-40.496
		L157.301,8.304c-4.813-8.066-15.266-10.715-23.333-5.902L89.731,28.773c-8.067,4.813-10.715,15.242-5.902,23.309L102.285,110.663z" style="fill: rgb(128, 128, 0);"></path>
	<path class="st0" d="M396.696,97.785c4.594,4.199,8.946,8.504,13.035,12.878l18.453-58.582c4.813-8.066,2.165-18.496-5.902-23.309
		L378.044,2.402c-8.066-4.813-18.52-2.164-23.329,5.902l-19.66,48.336l-0.207,0.5h0.004l-0.058,0.149
		C363.285,68.679,387.907,89.738,396.696,97.785z" style="fill: rgb(128, 128, 0);"></path>
</g>
</svg>
