<!--?xml version="1.0" encoding="utf-8"?-->
<!-- Generator: Adobe Illustrator 19.1.1, SVG Export Plug-In . SVG Version: 6.00 Build 0)  -->
<svg version="1.1" id="_x31_0" xmlns="http://www.w3.org/2000/svg" xmlns:xlink="http://www.w3.org/1999/xlink" x="0px" y="0px" viewBox="0 0 512 512" style="width: 256px; height: 256px; opacity: 1;" xml:space="preserve">
<style type="text/css">
	.st0{fill:#374149;}
</style>
<g>
	<path class="st0" d="M204.702,450.066h7.805c1.367-13.27,2.078-26.996,2.078-41.058c0-79.414-22.726-148.155-55.855-181.854
		c-0.406-0.414-0.789-0.894-1.195-1.297c-1.336-1.313-2.722-2.422-4.09-3.618c-1.367-1.203-2.707-2.496-4.102-3.582
		c-0.352-0.27-0.719-0.465-1.07-0.726c-5.086-3.821-10.355-6.946-15.82-9.114l-0.004,0.066c-0.051-0.019-0.102-0.054-0.156-0.074
		l-8.934,155.515c-1.188,22.539,6.714,43.973,22.242,60.351C161.147,441.035,182.123,450.066,204.702,450.066z" style="fill: rgb(128, 128, 0);"></path>
	<path class="st0" d="M297.412,409.008c0,14.062,0.715,27.809,2.082,41.058h7.801c22.582,0,43.554-9.031,59.082-25.39
		c15.55-16.378,23.449-37.812,22.262-60.351l-6.813-118.652l-2.062-36.714c-0.015,0.008-0.031,0.019-0.046,0.023l-0.008-0.172
		C332.806,227.169,297.412,309.841,297.412,409.008z" style="fill: rgb(128, 128, 0);"></path>
	<path class="st0" d="M200.643,256.782c20.48,40.957,31.769,95.027,31.769,152.226c0,13.317-0.656,26.434-1.851,39.286
		c-0.058,0.531-0.07,1.082-0.133,1.613h0.015c-0.007,0.051-0.007,0.106-0.015,0.16h51.14c-1.304-13.41-1.98-27.136-1.98-41.058
		c0-57.198,11.27-111.269,31.75-152.226c17.844-35.652,41.234-58.57,67.32-66.492l-1.445-25.114
		c-1.664-31.789-27.906-56.683-59.734-56.683h-51.277v24.5h-20.402v-24.5h-10.496v24.5H214.92v-24.5h-20.398
		c-31.828,0-58.07,24.894-59.734,56.683l-1.446,25.114C159.424,198.212,182.818,221.13,200.643,256.782z M230.213,180.743h-10.199
		v-41.55h10.199v41.457V180.743z M261.088,139.193v41.55h-10.199v-41.55H261.088z" style="fill: rgb(128, 128, 0);"></path>
	<path class="st0" d="M434.49,403.501c2.019-10.555,2.754-21.45,2.18-32.481l-8.301-157.675l-1.066-20.418l-1.07-20.402
		c-1.922-36.422-20.758-68.113-48.645-87.602l15.172-37.75c4.355-7.309,1.961-16.754-5.347-21.113L347.346,2.174
		c-7.309-4.355-16.778-1.961-21.133,5.348l-12.758,31.336c-19.746-3.981-39.867-6.004-60.031-6.004
		c-19.965,0-39.867,1.98-59.418,5.882L181.311,7.522c-4.356-7.309-13.825-9.703-21.133-5.348l-40.066,23.887
		c-7.309,4.359-9.707,13.804-5.348,21.113l16.18,40.266c-25.984,19.648-43.336,50.187-45.176,85.086l-1.07,20.32l-1.09,20.52
		L75.311,371.02c-0.574,11.051,0.176,21.926,2.176,32.481c0,0.023,0,0.023,0,0.023c-3.961,5.008-8.652,10.457-14,15.644
		c10.637,36.184,27.668,53.199,27.668,53.199l37.214,12.637c20.914,15.882,45.832,25.133,72.351,26.738
		c2.754,0.175,5.547,0.258,8.34,0.258h10.121h73.637h10.102c2.793,0,5.586-0.082,8.359-0.278
		c26.519-1.586,51.434-10.836,72.328-26.699l37.238-12.656c0,0,17.031-17.015,27.668-53.199
		C443.166,413.962,438.45,408.532,434.49,403.501z M101.038,372.368l8.793-167.3l0.954-17.848l0.691-13.328
		c2.477-46.98,41.258-83.758,88.277-83.758h15.168h77.679h19.649c47.019,0,85.8,36.778,88.273,83.758l0.695,13.309l0.95,17.867
		l8.797,167.3c1.582,29.945-8.914,58.406-29.55,80.156c-20.164,21.25-47.238,33.171-76.434,33.706
		c-0.691,0.02-1.367,0.02-2.058,0.02h-16.121h-61.598h-16.141c-0.676,0-1.367,0-2.043-0.02
		c-29.191-0.535-56.285-12.457-76.429-33.706C109.952,430.774,99.452,402.313,101.038,372.368z M308.889,50.099l-5.813,14.286
		h-98.632l-4.938-12.164l-0.894-2.278c18.113-3.465,36.464-5.203,54.812-5.203c17.164,0,34.32,1.59,51.281,4.618
		C306.099,49.619,307.498,49.814,308.889,50.099z" style="fill: rgb(128, 128, 0);"></path>
</g>
</svg>
