<!--?xml version="1.0" encoding="utf-8"?-->
<!-- Generator: Adobe Illustrator 19.1.1, SVG Export Plug-In . SVG Version: 6.00 Build 0)  -->
<svg version="1.1" id="_x31_0" xmlns="http://www.w3.org/2000/svg" xmlns:xlink="http://www.w3.org/1999/xlink" x="0px" y="0px" viewBox="0 0 512 512" style="width: 256px; height: 256px; opacity: 1;" xml:space="preserve">
<style type="text/css">
	.st0{fill:#374149;}
</style>
<g>
	<path class="st0" d="M102.043,190.566c-0.027,0.125-0.066,0.242-0.094,0.363c23.539-30.641,56.016-54.082,93.485-66.406
		c9.004-2.98,18.301-5.289,27.828-6.89c10.641-1.836,21.59-2.785,32.738-2.785c11.148,0,22.098,0.949,32.738,2.785
		c9.527,1.602,18.824,3.91,27.828,6.89c37.469,12.325,69.945,35.766,93.484,66.406c-11.374-50.266-46.801-91.5-93.484-110.949
		v-1.699v-1.836V35.82L280.75,0h-49.515l-35.801,35.801v40.645v1.836v1.699c-37.118,15.461-67.062,44.722-83.52,81.316
		c-4.277,9.43-7.706,19.297-10.09,29.539C101.895,190.742,101.974,190.66,102.043,190.566z M288.723,71.32
		c-10.57-2.242-21.5-3.418-32.722-3.418c-10.469,0-20.649,1.117-30.551,3.074c-0.726,0.129-1.461,0.183-2.187,0.32v-1.629v-1.684
		v-20.66l19.496-19.496h26.469l19.512,19.512v20.644v1.684v1.504L288.723,71.32z" style="fill: rgb(105, 105, 105);"></path>
	<path class="st0" d="M156.149,330.027v56.172v0.172l0,0v0.16h199.703v-56.504c0-4.355-3.55-7.91-7.906-7.91h-183.89
		C159.7,322.117,156.149,325.672,156.149,330.027z" style="fill: rgb(105, 105, 105);"></path>
	<path class="st0" d="M465.153,302.934c-3.812-9.23-7.644-18.203-11.375-26.715c-5.785-13.218-11.293-25.301-16.105-35.636
		c-1.375-3.047-2.742-6.078-4.114-9.13c0.008,0.126,0.004,0.266,0.016,0.391c-0.055-0.118-0.122-0.262-0.176-0.379
		c0.473,5.058,0.703,10.199,0.703,15.371v3.586v71.68c40.121,98.133,35.308,121.789,33.934,125.535
		c-1.328,3.586-3.29,5.11-7.055,5.469c-2.598,0.25-5.976-0.222-9.867-1.598c-9.605-3.387-17.027-11.168-21-20.547l-16.16-38.144
		V233.742v-0.094c0-5.566-1.434-11.098-4.457-15.774c-21.809-33.715-54.442-59.821-92.938-73.363
		c-8.973-3.176-18.27-5.664-27.828-7.383c-10.625-1.93-21.574-2.946-32.738-2.946c-11.164,0-22.114,1.016-32.738,2.946
		c-9.562,1.719-18.859,4.207-27.828,7.383c-6.516,2.281-12.824,5.007-18.977,7.996c-0.918,0.426-1.863,0.812-2.773,1.242
		l0.031,0.038c-0.047,0.024-0.102,0.047-0.149,0.07l19.363,20.954c3.52,5.89,1.606,13.535-4.289,17.074
		c-5.894,3.52-13.535,1.602-17.058-4.289l-7.836-22.645l-1.559-4.605c-0.011,0.003-0.019,0.011-0.019,0.011l-0.062-0.148
		c-23.992,14.41-44.406,34.172-59.59,57.625c-3.028,4.68-4.466,10.214-4.466,15.785v0.122v159.074l-16.16,38.144
		c-3.976,9.394-11.406,17.188-21.031,20.562c-3.878,1.363-7.246,1.832-9.832,1.582c-3.762-0.359-5.742-1.883-7.054-5.469
		c-1.375-3.746-6.188-27.402,33.918-125.535v-71.629v-3.637c0-4.313,0.258-8.554,0.586-12.786c0.102-0.824,0.137-1.675,0.262-2.484
		c-0.054,0.117-0.11,0.238-0.164,0.355c0.011-0.14,0.008-0.285,0.019-0.422c-5.679,12.016-12.801,27.45-20.378,44.754
		c-3.731,8.493-7.563,17.465-11.375,26.68C2.012,411.168,4.434,444.43,10.165,460.047c6.023,16.434,20.019,27.254,37.418,28.906
		c1.703,0.164,3.422,0.246,5.141,0.246c7.297,0,14.703-1.523,22.039-4.301l25.461,17.516c3.031,5.675,8.946,9.586,15.828,9.586
		H395.95c6.883,0,12.797-3.91,15.825-9.586l25.476-17.524c7.332,2.774,14.738,4.309,22.027,4.309c2.231,0,4.43-0.137,6.641-0.414
		c16.43-2.066,30.195-13.168,35.906-28.71C507.563,444.469,510.016,411.234,465.153,302.934z M367.302,330.027v110.226
		c0,10.672-8.692,19.367-19.363,19.367H164.047c-10.675,0-19.363-8.695-19.363-19.367V330.027c0-10.676,8.688-19.367,19.363-19.367
		h183.891C358.61,310.66,367.302,319.351,367.302,330.027z" style="fill: rgb(105, 105, 105);"></path>
</g>
</svg>
