<!--?xml version="1.0" encoding="utf-8"?-->
<!-- Generator: Adobe Illustrator 19.1.1, SVG Export Plug-In . SVG Version: 6.00 Build 0)  -->
<svg version="1.1" id="_x31_0" xmlns="http://www.w3.org/2000/svg" xmlns:xlink="http://www.w3.org/1999/xlink" x="0px" y="0px" viewBox="0 0 512 512" style="width: 256px; height: 256px; opacity: 1;" xml:space="preserve">
<style type="text/css">
	.st0{fill:#374149;}
</style>
<g>
	<path class="st0" d="M511.404,382.256l-0.934-7.758c-3.023-26.531-8.687-75.871-30.098-124.821
		c-22.109-50.578-45.226-86.418-86.339-96.582c-8.922-2.172-22.344-3.957-40.574-5.352c-3.566-16.602-7.058-32.66-9.617-45.07
		C326.077,17.963,286.279,0.198,256.026,0.198c-30.332,0-70.125,17.766-87.89,102.477c-2.562,12.41-6.051,28.468-9.621,45.07
		c-17.918,1.321-31.57,3.106-40.57,5.352c-41.114,10.164-64.23,46.004-86.34,96.582C10.19,298.705,4.53,348.045,1.503,374.42
		l-0.074,0.93c-0.312,2.637-0.621,5.043-0.855,6.906c-2.793,22.106,4.656,45.457,21.722,67.488
		c10.473,13.418,22.961,24.512,31.106,30.332c12.102,8.687,36.226,20.946,105.813,27.383c42.746,4.035,84.866,4.343,96.812,4.343
		c11.871,0,54.07-0.308,96.738-4.343c69.582-6.438,93.707-18.696,105.808-27.383c8.227-5.82,20.715-16.914,31.11-30.332
		C506.748,427.713,514.271,404.362,511.404,382.256z M433.908,445.63c-0.668,0.462-1.445,0.922-2.199,1.383
		c-0.394,0.203-0.695,0.438-1.136,0.617c0.386-10.488,0.847-29.07,0.152-56.922c-0.074-4.5-0.23-9.23-0.386-14.195
		c-0.157-3.57-0.234-7.214-0.387-10.938c-2.266-54.578-16.351-121.102-23.457-151.836c-0.512-2.214,2.293-3.695,3.785-1.976
		c9.79,11.285,19.774,28.668,31.23,54.902c21.332,48.87,25.29,100.926,27.848,121.019
		C472.615,412.974,442.748,439.271,433.908,445.63z M394.155,198.779l-0.043,0.008c0.23,0.934,24.36,94.797,27.305,167.098
		c0.157,3.645,0.309,7.215,0.387,10.629c0.156,4.965,0.312,9.695,0.469,14.195c0.773,32.118,0.074,51.977-0.469,61.051
		c-19.938,7.605-52.594,11.949-84.711,14.507c-32.039,2.481-63.531,3.102-81.066,3.102c-35.062,0-126.058-2.48-165.855-17.609
		c-0.309-6.13-0.695-17.145-0.695-33.59c0-7.836,0.074-16.988,0.309-27.382c0.078-4.5,0.234-9.309,0.386-14.274
		c0.156-3.414,0.234-6.984,0.39-10.629c3.024-72.222,27.074-166.164,27.305-167.098l-0.621-0.152c3.57-2.02,7.14-3.414,10.863-4.344
		c6.281-1.554,16.367-2.871,29.09-3.879c-2.019,9.23-3.879,17.766-5.508,24.977c-1.554,7.215-2.871,13.114-3.726,17.066
		l-9.785-1.168c-1.418-0.168-2.711,0.82-2.918,2.234l-2.035,13.906l-18.23,123.266l-0.23,1.398l0.074,1.473l0.699,27.308
		l0.176,7.578c0.078,3.508,2.574,6.492,6.011,7.191l7.469,1.52l10.551,2.094l7.859,1.598c3.61,0.734,7.214-1.254,8.523-4.695
		l2.856-7.527l9.926-26.066l0.699-1.786l0.234-1.863l18.152-124.039l2.16-14.55c0.219-1.465-0.812-2.821-2.281-3l-8.668-1.062
		l-0.672-0.094c2.172-9.934,6.047-27.692,10.39-47.622c20.172-0.851,43.133-1.242,67.102-1.242c23.894,0,46.934,0.39,67.027,1.242
		c2.172,10.008,4.188,19.394,6.051,27.539c1.726,7.953,3.152,14.633,4.301,19.558c0.031,0.164,0.078,0.375,0.106,0.535l-9.406,1.145
		c-1.469,0.179-2.5,1.535-2.286,3l2.164,14.55l18.153,124.039l0.308,1.863l0.622,1.786l9.93,26.066l2.859,7.531
		c1.305,3.441,4.906,5.43,8.512,4.699l7.945-1.606l10.473-2.094l7.469-1.52c3.438-0.699,5.93-3.683,6.012-7.191l0.172-7.578
		l0.699-27.308l0.078-1.473l-0.234-1.398l-18.152-123.266l-2.035-13.906c-0.203-1.414-1.5-2.402-2.914-2.234l-9.789,1.168
		c-1.699-7.461-4.882-22.133-8.664-39.461l-0.519-2.578c12.699,1.004,22.691,2.324,28.965,3.875
		c2.246,0.558,4.445,1.359,6.613,2.293C391.791,197.233,393.069,197.908,394.155,198.779z M78.147,445.63
		c-8.918-6.359-38.786-32.656-35.527-57.945c2.636-20.094,6.515-72.149,27.926-121.019c11.378-26.207,21.394-43.582,31.148-54.867
		c1.489-1.723,4.293-0.242,3.786,1.973c-7.106,30.8-21.18,97.308-23.375,151.804c-0.156,3.801-0.313,7.367-0.465,10.938
		c-0.156,4.965-0.309,9.695-0.386,14.274c-0.594,23.606-0.348,40.511-0.024,51.511c0.031,1.786,0.055,3.618,0.094,5.375
		C80.19,446.99,79.131,446.31,78.147,445.63z M256.026,38.596c29.09,0,43.367,39.098,50.191,71.914
		c2.129,9.934,4.75,22.168,7.535,35.137l1.66,7.914c-22.949-0.695-44.886-0.93-59.386-0.93c-13.359,0-33.125,0.203-54.102,0.781
		c-1.793,0.039-3.554,0.07-5.39,0.114c3.41-15.886,6.746-31.078,9.222-43.016C212.584,77.694,226.862,38.596,256.026,38.596z
		 M161.151,320.974l-8.14,55.539l-9.93,26.062l-10.555-2.094l-0.695-27.305l5.817-39.406l2.098-14.277l0.152-1.086l8.922,1.086
		l0.309,0.078l11.719,1.363L161.151,320.974z M164.874,295.53l-2.246,15.355l-20.789-2.504l-0.465-0.058l2.324-15.355l20.778,2.507
		L164.874,295.53z M350.905,320.967l11.941-1.395l0.313-0.078l8.922-1.086l0.157,1.086l2.09,14.277l5.82,39.406l-0.699,27.305
		l-10.55,2.094l-9.93-26.062l-7.871-54.199L350.905,320.967z M370.6,308.326l-21.176,2.558l-2.278-15.05l-0.042-0.309l21.175-2.558
		l2.27,15L370.6,308.326z M366.799,282.881l-21.172,2.481l-4.738-32.398l-0.07-0.492l21.098-2.559l4.766,32.129L366.799,282.881z
		 M171.159,252.474l-4.808,32.887l-20.79-2.512l-0.386-0.05l4.886-32.887l20.707,2.512L171.159,252.474z" style="fill: rgb(0, 0, 0);"></path>
</g>
</svg>
