<!--?xml version="1.0" encoding="utf-8"?-->
<!-- Generator: Adobe Illustrator 18.1.1, SVG Export Plug-In . SVG Version: 6.00 Build 0)  -->

<svg version="1.1" id="_x31_0" xmlns="http://www.w3.org/2000/svg" xmlns:xlink="http://www.w3.org/1999/xlink" x="0px" y="0px" viewBox="0 0 512 512" style="width: 256px; height: 256px; opacity: 1;" xml:space="preserve">
<style type="text/css">
	.st0{fill:#374149;}
</style>
<g>
	<path class="st0" d="M142.53,137.894c0.242-9.746,0.301-15.191,0.301-15.191c0.121-6.722,5.633-12.047,12.289-11.926
		c6.355,0.121,11.442,5.023,11.867,11.258l0.058,0.668c0,0,0.242,3.57,0.66,9.988l0.234,4.703c0.02-0.015,0.039-0.031,0.062-0.043
		c0.004,0.063,0.008,0.118,0.012,0.18c8.477-4.598,14.226-13.617,14.226-23.91c0-15.074-12.23-27.359-27.301-27.359
		c-15.074,0-27.301,12.286-27.301,27.359C127.638,124.152,133.69,133.418,142.53,137.894z" style="fill: rgb(169, 169, 169);"></path>
	<path class="st0" d="M341.018,135.676c0.879,0.66,1.789,1.289,2.75,1.847c0-0.031,0.004-0.058,0.008-0.09
		c0.051,0.031,0.098,0.07,0.153,0.098c0.664-9.683,0.969-15.133,0.969-15.133c0.363-5.031,3.675-9.11,8.113-10.664
		c0.047-0.016,0.102-0.023,0.149-0.039c1.449-0.488,3.011-0.718,4.633-0.617c6.355,0.426,11.195,5.691,11.316,11.867
		c0,0,0.062,5.386,0.242,14.949c8.898-4.477,14.953-13.679,14.953-24.274c0-15.074-12.226-27.359-27.301-27.359
		c-15.011,0-27.301,12.286-27.301,27.359c0,8.688,4.13,16.395,10.504,21.398c0.219,0.18,0.426,0.375,0.649,0.547
		C340.908,135.606,340.963,135.637,341.018,135.676z" style="fill: rgb(169, 169, 169);"></path>
	<path class="st0" d="M482.974,383.484L466.873,24.516C466.326,10.836,455.006,0,441.326,0H70.615
		C56.932,0,45.611,10.836,45.068,24.516L29.717,368.047l-0.691,15.277h0.008l-0.008,0.16H482.974z M154.939,62.047
		c28.391,0,51.512,23.125,51.512,51.574c0,22.942-15.133,42.496-35.957,49.094c0.062,0.304,0.062,0.605,0.121,0.968
		c1.453,8.294,2.664,17.734,4.965,27.727c0.547,2.48,1.149,5.023,1.695,7.625c0.726,2.543,1.454,5.145,2.18,7.809
		c0.785,2.606,1.453,5.328,2.359,7.93c0.91,2.664,1.879,5.328,2.906,7.992c1.695,5.508,4.48,10.652,6.781,16.102
		c1.27,2.664,2.844,5.086,4.234,7.75l2.122,3.934c0.785,1.211,1.695,2.422,2.48,3.633c1.758,2.36,3.211,5.082,5.149,7.262
		c1.934,2.242,3.813,4.48,5.75,6.722c2.118,1.934,4.234,3.934,6.356,5.93c2.238,1.817,4.602,3.328,6.902,5.086
		c2.297,1.634,4.902,2.723,7.324,4.176c2.481,1.211,5.145,1.938,7.746,3.027c2.422,0.664,4.664,0.969,6.961,1.696
		c1.453,0.242,3.511,0.242,5.207,0.422l2.722,0.183l1.332,0.059l0.484,0.062h0.547l0.058,0.058c0,0,0,0,0.062,0
		c0.059-0.058,0.122-0.058,0.18-0.058c10.836-0.184,21.187-3.633,30.39-9.626c2.238-1.758,4.602-3.269,6.84-5.086
		c2.118-1.996,4.238-3.996,6.355-5.93c1.938-2.242,3.813-4.481,5.75-6.722c1.938-2.18,3.39-4.902,5.148-7.262
		c0.786-1.21,1.692-2.422,2.481-3.633l2.117-3.934c1.395-2.664,2.969-5.086,4.238-7.75c2.301-5.45,5.086-10.594,6.84-16.102
		c0.969-2.664,1.938-5.328,2.848-7.992c0.906-2.602,1.57-5.324,2.359-7.93c0.726-2.664,1.453-5.266,2.18-7.809
		c0.605-2.602,1.148-5.145,1.695-7.625c2.297-9.993,3.507-19.434,4.961-27.727c0.062-0.304,0.062-0.664,0.121-0.968
		c-20.824-6.598-35.957-26.153-35.957-49.094c0-28.449,23.125-51.574,51.515-51.574c28.454,0,51.516,23.125,51.516,51.574
		c0,24.395-17.012,44.918-39.832,50.184c-0.062,0.847-0.062,1.754-0.121,2.664c-0.969,9.078-1.574,19.371-3.813,30.508
		c-0.485,2.785-1.031,5.629-1.516,8.535c-0.664,2.906-1.39,5.874-2.117,8.839c-0.726,3.028-1.394,6.051-2.242,9.141
		c-1.027,3.086-1.996,6.176-2.965,9.321c-1.816,6.418-4.722,12.714-7.324,19.25c-1.39,3.27-3.207,6.418-4.844,9.688l-2.602,4.902
		c-0.91,1.574-2,3.149-3.027,4.723c-7.93,12.774-18.465,25.426-32.75,34.808c-14.043,9.5-31.782,15.313-49.395,15.313l-6.538-0.484
		c-1.875-0.122-3.45-0.18-5.508-0.485c-4.66-0.906-9.625-1.754-13.985-3.086c-4.054-1.574-8.293-2.906-12.168-4.844
		c-3.754-2.117-7.687-3.996-11.199-6.414c-14.222-9.382-24.816-22.034-32.746-34.808c-1.031-1.574-2.122-3.149-3.027-4.723
		l-2.602-4.902c-1.637-3.27-3.454-6.418-4.844-9.688c-2.606-6.535-5.508-12.832-7.324-19.25c-0.969-3.145-1.938-6.234-2.906-9.321
		c-0.91-3.09-1.574-6.113-2.301-9.141c-0.726-2.965-1.454-5.934-2.118-8.839c-0.484-2.906-1.031-5.75-1.515-8.535
		c-2.238-11.137-2.844-21.43-3.813-30.508c-0.062-0.91-0.062-1.817-0.121-2.664c-22.824-5.266-39.832-25.789-39.832-50.184
		C103.424,85.172,126.486,62.047,154.939,62.047z" style="fill: rgb(169, 169, 169);"></path>
	<path class="st0" d="M483.822,401.645H28.178l-3.812,85.594C23.76,500.738,34.474,512,48.034,512h415.934
		c13.5,0,24.273-11.262,23.667-24.762L483.822,401.645z" style="fill: rgb(169, 169, 169);"></path>
</g>
</svg>
