<!--?xml version="1.0" encoding="utf-8"?-->
<!-- Generator: Adobe Illustrator 19.1.1, SVG Export Plug-In . SVG Version: 6.00 Build 0)  -->
<svg version="1.1" id="_x31_0" xmlns="http://www.w3.org/2000/svg" xmlns:xlink="http://www.w3.org/1999/xlink" x="0px" y="0px" viewBox="0 0 512 512" style="width: 256px; height: 256px; opacity: 1;" xml:space="preserve">
<style type="text/css">
	.st0{fill:#374149;}
</style>
<g>
	<path class="st0" d="M498.89,179.975c-22.886,0-44.22-11.791-55.781-30.799c-13.03-21.333-35.295-34.053-59.575-34.053H128.39
		c-24.284,0-46.546,12.72-59.504,34.053c-11.557,19.008-32.97,30.799-55.852,30.799C5.818,179.975,0,185.87,0,193.086v57.56
		c0,7.216,5.818,13.11,13.034,13.11h25.674c12.879,0,23.508,10.087,24.205,22.886l2.25,39.64
		c2.174,38.943,34.909,70.594,73.075,70.594h235.523c38.09,0,70.826-31.651,73.075-70.594l2.17-39.64
		c0.777-12.799,11.406-22.886,24.205-22.886h25.678c7.212,0,13.11-5.894,13.11-13.11v-57.56
		C512,185.87,506.102,179.975,498.89,179.975z M403.936,325.896c-0.698,15.67-13.652,28.234-28.932,28.234h-79.985
		c-2.947,0-5.349-2.401-5.273-5.352l0.852-120.474c0.08-2.946,2.406-5.276,5.352-5.276h105.584c3.022,0,5.428,2.485,5.348,5.507
		L403.936,325.896z M289.159,184.926c-1.038-0.281-2.008-0.72-2.906-1.284c-0.33-0.205-0.651-0.413-0.962-0.655
		c-2.792-2.198-4.591-5.716-4.546-9.682c0-4.345,2.174-8.147,5.352-10.318c1.784-1.167,3.799-1.864,6.05-1.864
		c2.174,0,4.269,0.697,5.977,1.864c3.098,2.17,5.197,5.973,5.122,10.318c-0.083,6.591-5.201,12.023-11.33,12.023
		c-0.565,0-1.102-0.095-1.644-0.178C289.898,185.093,289.526,185.025,289.159,184.926z M107.985,325.896l-2.867-97.36
		c-0.159-3.022,2.25-5.507,5.273-5.507h63.614c2.871,0,5.273,2.33,5.273,5.197l2.015,120.477c0.079,3.027-2.326,5.428-5.273,5.428
		h-39.098C121.716,354.13,108.686,341.566,107.985,325.896z M258.867,173.922v0.079c0,2.947-2.326,5.353-5.273,5.353H115.277
		c-4.886,0-7.213-6.05-3.569-9.31l0.076-0.076c1.011-0.852,2.25-1.398,3.568-1.398h138.242
		C256.542,168.57,258.867,170.975,258.867,173.922z M216.436,223.029h37.083c2.946,0,5.273,2.33,5.273,5.276l-0.076,120.554
		c0,2.946-2.326,5.272-5.277,5.272h-35.837c-2.871,0-5.281-2.326-5.281-5.197l-1.238-120.553
		C211.083,225.434,213.489,223.029,216.436,223.029z" style="fill: rgb(128, 128, 0);"></path>
	<path class="st0" d="M363.443,288.582c-13.5,0-24.826,11.246-25.212,25.057c-0.235,6.826,2.25,13.19,6.902,17.996
		c4.575,4.731,10.704,7.292,17.223,7.292c13.345,0,24.67-11.17,25.212-24.822c0.231-6.83-2.17-13.345-6.83-18.155
		C376.163,291.218,370.034,288.582,363.443,288.582z" style="fill: rgb(128, 128, 0);"></path>
</g>
</svg>
