<!--?xml version="1.0" encoding="utf-8"?-->
<!-- Generator: Adobe Illustrator 19.1.1, SVG Export Plug-In . SVG Version: 6.00 Build 0)  -->
<svg version="1.1" id="_x31_0" xmlns="http://www.w3.org/2000/svg" xmlns:xlink="http://www.w3.org/1999/xlink" x="0px" y="0px" viewBox="0 0 512 512" style="width: 256px; height: 256px; opacity: 1;" xml:space="preserve">
<style type="text/css">
	.st0{fill:#374149;}
</style>
<g>
	<path class="st0" d="M452.126,197.707c-0.489-8.313-0.91-15.496-1.012-20.371c-0.508-25.106-21.344-45.516-46.449-45.516
		c-1.801,0-3.622,0.102-5.422,0.305c-5.519,0.645-16,1.797-30,3.024c-6.106,0.468-12.824,0.922-20.23,1.316
		c0-35.625-7.789-68.453-21.93-92.422C310.353,15.641,285.107,0,255.994,0c-29.11,0-54.356,15.641-71.086,44.043
		c-14.14,23.973-21.93,56.805-21.93,92.43v0.09c0,0.07-0.007,0.141-0.007,0.211c-24.294-1.758-42.294-3.719-50.223-4.649
		c-1.781-0.203-3.602-0.305-5.422-0.305c-25.086,0-45.942,20.41-46.45,45.516c-0.102,4.875-0.523,12.058-0.988,20.371
		c-3.359,57.738-10.32,177.882,41.469,278.691l8.617,16.789l18.227,4.856C150.658,504.031,188.345,512,255.994,512
		c67.652,0,105.34-7.969,127.816-13.957l18.227-4.856l8.617-16.789C462.423,375.59,455.462,255.446,452.126,197.707z
		 M134.353,461.61c-3.519-6.821-6.797-13.938-9.871-21.262c-1.054-2.531,1.031-5.242,3.742-4.817
		c15.332,2.43,33.5,4.875,53.586,6.859c0.73,0.059,1.418,0.363,1.965,0.848c9.794,8.801,21.122,18.39,34.29,28.77
		c0.039,0.019,0.062,0.039,0.102,0.078c2.672,2.106,1.011,6.414-2.406,6.211c-36.699-2.386-59.738-7.465-75.016-11.531l-2.851-0.746
		c-0.95-0.266-1.758-0.91-2.203-1.781L134.353,461.61z M103.341,178.207c0.059-2.207,1.84-3.906,3.985-3.906
		c0.16,0,0.324,0,0.484,0.019c8.418,0.993,28.305,3.157,55.168,5.039v21.223c0,4.308,3.5,7.789,7.809,7.789h20.817
		c4.308,0,7.789-3.481,7.789-7.789V182.18l0.008-0.734c17.558,0.789,36.671,1.293,56.594,1.293c19.77,0,38.754-0.5,56.179-1.278
		c0.141-0.008,0.282-0.008,0.426-0.011v19.133c0,4.308,3.48,7.789,7.789,7.789h20.836c4.309,0,7.789-3.481,7.789-7.789v-21.223
		c26.887-1.882,46.774-4.046,55.188-5.039c0.16-0.019,0.304-0.019,0.465-0.019c2.144,0,3.945,1.699,3.984,3.906
		c0.707,34.187,12.746,131.332-14.039,223.418c-35.179,6.133-84.175,12.321-138.617,12.321c-56.074,0-106.852-6.836-138.614-12.321
		C90.615,309.539,102.631,212.394,103.341,178.207z M312.599,138.922c-17.481,0.809-36.618,1.332-56.606,1.332
		c-14.558,0-28.645-0.285-41.989-0.746c-3.281-0.129-6.542-0.23-9.843-0.391c-1.578-0.07-3.215-0.125-4.77-0.195v-2.449
		c0-48.188,17.722-100.058,56.602-100.058c38.902,0,56.606,51.87,56.606,100.058V138.922z" style="fill: rgb(0, 0, 0);"></path>
	<path class="st0" d="M144.185,256.05l2.89-0.363l1.742,13.657c0.121,0.992,0.406,1.941,0.828,2.832
		c0.406,0.89,0.992,1.679,1.742,2.324c0.746,0.668,1.656,1.156,2.711,1.5c0.582,0.176,1.343,0.09,2.031,0.121
		c0.094,0,0.168,0.035,0.266,0.035c0.05,0,0.109-0.011,0.16-0.011c0.442,0,0.785,0.137,1.262,0.074l3.606-0.461l0,0l0,0l0.16-0.023
		l-0.75-5.805l-2.489,0.305c-1.578,0.199-2.488-0.527-2.691-2.187l-1.68-13.23l4.696-0.606h0.003l0,0l0.157-0.02l-0.668-5.242
		l-4.852,0.629l-1.031-7.993l0,0l0,0l-0.023-0.16l-6.699,0.848h-0.019l0,0l-0.161,0.023l1.035,8.153l-2.914,0.382L144.185,256.05z" style="fill: rgb(0, 0, 0);"></path>
	<path class="st0" d="M166.295,267.481c0.59,1.621,1.558,3.054,2.914,4.27c0.973,0.851,2.188,1.538,3.622,2.082
		c1.457,0.547,3.199,0.711,5.262,0.527c2.043-0.203,3.742-0.687,5.078-1.496c0.59-0.359,0.93-0.809,1.418-1.203
		c0.183-0.148,0.363-0.301,0.527-0.449c0.394-0.36,0.942-0.664,1.25-1.059c1.152-1.437,1.859-3.015,2.102-4.734
		c0.266-1.718,0.266-3.824,0.023-6.351c-0.222-2.508-0.629-4.574-1.215-6.172c-0.586-1.617-1.558-3.035-2.914-4.27
		c-0.973-0.828-2.207-1.515-3.66-2.062c-1.458-0.546-3.219-0.707-5.262-0.523c-2.062,0.199-3.742,0.687-5.078,1.496
		c-1.313,0.809-2.367,1.699-3.176,2.711c-1.114,1.457-1.801,3.035-2.062,4.714c-0.282,1.699-0.282,3.801-0.062,6.309
		C165.306,263.782,165.708,265.863,166.295,267.481z M181.693,263.68c-0.062,1.171-0.426,2.164-1.074,2.93
		c-0.726,0.89-1.781,1.398-3.114,1.539c-1.316,0.121-2.41-0.18-3.301-0.93c-0.789-0.648-1.312-1.538-1.598-2.691
		c-0.281-1.152-0.503-2.449-0.625-3.902c-0.144-1.418-0.164-2.71-0.102-3.906c0.058-1.195,0.422-2.164,1.051-2.934
		c0.75-0.89,1.762-1.394,3.074-1.534c1.356-0.126,2.469,0.179,3.36,0.93c0.77,0.648,1.312,1.535,1.598,2.691
		c0.285,1.152,0.484,2.426,0.629,3.844C181.732,261.172,181.751,262.484,181.693,263.68z" style="fill: rgb(0, 0, 0);"></path>
	<path class="st0" d="M194.396,262.078c0.121,1.113,0.281,2.168,0.546,3.156c0.242,0.973,0.586,1.902,1.012,2.754
		c0.402,0.848,0.969,1.598,1.676,2.223c0.832,0.77,1.843,1.355,3.035,1.699c1.195,0.367,2.488,0.527,3.886,0.445
		c1.477-0.078,2.75-0.363,3.782-0.867c0.828-0.398,1.594-1.042,2.32-1.816c0.199-0.168,0.39-0.313,0.602-0.492l0.133,2.488
		l6.61-0.355h0.007l0,0l0.161-0.008l-2.043-37.93l-6.918,0.363l0.383,7.262l0.164,5.262c-0.938-0.91-1.946-1.55-2.996-1.882
		c-1.114-0.363-2.367-0.504-3.805-0.426c-1.375,0.082-2.629,0.364-3.762,0.852c-1.133,0.484-2.062,1.152-2.813,2.023
		c-0.625,0.707-1.113,1.516-1.434,2.406c-0.324,0.89-0.566,1.82-0.71,2.832c-0.141,1.012-0.199,2.062-0.199,3.156
		c0,1.114,0.038,2.246,0.098,3.418C194.193,259.813,194.295,260.969,194.396,262.078z M201.396,261.414
		c-0.164-0.954-0.286-2.004-0.344-3.137c-0.062-1.114-0.062-2.145,0-3.137c0.058-0.969,0.222-1.821,0.504-2.547
		c0.285-0.73,0.707-1.316,1.316-1.762c0.606-0.446,1.414-0.687,2.446-0.75c1.031-0.059,1.863,0.101,2.512,0.488
		c0.644,0.363,1.152,0.91,1.535,1.598c0.363,0.687,0.648,1.515,0.789,2.488c0.164,0.969,0.285,2.004,0.344,3.114
		c0.062,1.133,0.062,2.187,0,3.156c-0.059,0.954-0.242,1.821-0.524,2.57c-0.304,0.73-0.75,1.336-1.359,1.782
		c-0.606,0.445-1.414,0.687-2.445,0.726c-1.032,0.062-1.86-0.102-2.508-0.465c-0.649-0.383-1.133-0.93-1.5-1.637
		C201.799,263.191,201.537,262.363,201.396,261.414z" style="fill: rgb(0, 0, 0);"></path>
	<path class="st0" d="M225.834,268.879c1.656,1.617,4.046,2.386,7.14,2.343c1.598-0.019,2.891-0.262,3.902-0.706
		c0.668-0.282,1.278-0.852,1.894-1.36c0.329-0.222,0.614-0.347,0.981-0.609l0.035,2.148v0.004l0,0l0.004,0.16l6.594-0.098h0.023l0,0
		l0.161-0.004l-0.282-18.308c-0.102-6.532-4.086-9.75-11.977-9.63c-2.328,0.02-4.206,0.344-5.706,0.93
		c-1.395,0.554-2.731,1.558-4,2.945c-0.039,0.035-0.078,0.062-0.114,0.098l0.004,0.004c-0.039,0.043-0.078,0.066-0.118,0.11
		l4.047,3.882l0.278,0.286l0.007-0.004l0.118,0.106c0.73-0.871,1.477-1.496,2.266-1.879c0.77-0.386,1.781-0.59,3.035-0.61
		c1.84-0.019,3.176,0.305,3.984,0.993c0.809,0.668,1.234,1.781,1.254,3.297l0.023,1.394l-6.453,0.102
		c-1.641,0.019-3.055,0.266-4.27,0.707c-1.195,0.445-2.184,1.035-2.954,1.762c-0.77,0.75-1.355,1.617-1.722,2.59
		c-0.383,0.992-0.562,2.043-0.543,3.137c0.02,1.254,0.223,2.406,0.625,3.457C224.498,267.199,225.064,268.11,225.834,268.879z
		 M230.271,261.566c0.063-0.262,0.13-0.516,0.25-0.734c0.562-1.035,1.75-1.598,3.645-1.625l5.281-0.082l0.02,1.5
		c0.023,0.891-0.039,1.598-0.203,2.164c-0.141,0.547-0.422,1.012-0.809,1.356c-0.586,0.586-1.211,0.949-1.84,1.133
		c-0.648,0.16-1.394,0.262-2.246,0.262c-1.458,0.019-2.528-0.242-3.215-0.789c-0.687-0.567-1.031-1.336-1.031-2.286
		C230.115,262.121,230.204,261.851,230.271,261.566z" style="fill: rgb(0, 0, 0);"></path>
	<path class="st0" d="M259.638,268.957l-1.254,3.379c-0.367,1.031-0.813,1.699-1.297,2.004c-0.484,0.305-1.234,0.465-2.222,0.445
		l-1.43-0.034l-0.008-0.004v0.004l-0.164-0.008l-0.118,6.066v0.004l0,0l-0.004,0.164l2.711,0.058
		c1.133,0.019,2.226-0.102,3.238-0.383c1.031-0.285,1.942-0.808,2.789-1.621c0.79-0.766,1.52-1.942,2.149-3.539l9.367-23.828
		l3.21-8.015h-0.058l0.062-0.161l-7.305-0.16l-3.285,9.489l-2.683,7.363l-5.34-17.094l-5.313-0.121l-1.84-0.094l0.02,0.054
		l-0.168-0.004L259.638,268.957z" style="fill: rgb(0, 0, 0);"></path>
	<polygon class="st0" points="298.967,272.621 300.704,245.95 300.716,245.836 300.712,245.836 300.724,245.672 293.806,245.226 
		292.075,271.738 292.052,272.016 292.056,272.016 292.044,272.176 	" style="fill: rgb(0, 0, 0);"></polygon>
	<polygon class="st0" points="301.15,240.152 301.502,234.699 301.505,234.664 301.502,234.664 301.513,234.508 294.642,234.054 
		294.591,234.05 294.591,234.05 294.431,234.043 294.079,239.488 294.075,239.523 294.079,239.523 294.068,239.687 	" style="fill: rgb(0, 0, 0);"></polygon>
	<path class="st0" d="M319.458,268.047c-0.469,0.183-1.012,0.304-1.602,0.367c-0.606,0.038-1.191,0.038-1.797,0
		c-0.547-0.063-1.114-0.145-1.722-0.246c-0.626-0.121-1.254-0.301-1.879-0.566c-0.649-0.242-1.254-0.566-1.863-0.969
		c-0.606-0.386-1.172-0.91-1.68-1.519l-4.934,4.09c0.789,0.969,1.637,1.758,2.527,2.363c0.891,0.59,1.821,1.074,2.774,1.457
		c0.93,0.367,1.922,0.649,2.934,0.832c1.031,0.18,2.082,0.344,3.176,0.442c1.637,0.145,3.176,0.102,4.652-0.141
		c1.477-0.242,2.77-0.668,3.902-1.312c1.133-0.649,2.043-1.52,2.754-2.59c0.706-1.074,1.133-2.367,1.273-3.906
		c0.223-2.367-0.285-4.309-1.515-5.825c-1.234-1.5-3.219-2.531-5.95-3.054l-4.332-0.852c-1.007-0.202-1.718-0.503-2.121-0.949
		c-0.406-0.426-0.586-0.992-0.508-1.699c0.062-0.711,0.426-1.297,1.094-1.782c0.325-0.226,0.742-0.378,1.234-0.469
		c0.02,0,0.035-0.007,0.059-0.011c0.507-0.082,1.102-0.094,1.781-0.027c1.234,0.102,2.406,0.367,3.5,0.73
		c1.094,0.363,2.004,0.949,2.75,1.718l4.394-3.687l0.141-0.11l-0.004-0.004l0.125-0.102c-1.215-1.355-2.691-2.347-4.41-2.976
		c-1.699-0.626-3.664-1.051-5.847-1.254c-1.418-0.121-2.794-0.058-4.129,0.184c-1.332,0.262-2.508,0.706-3.559,1.355
		c-1.031,0.648-1.902,1.496-2.59,2.547c-0.687,1.054-1.094,2.289-1.234,3.746c-0.242,2.547,0.305,4.489,1.641,5.805
		c1.312,1.313,3.195,2.226,5.602,2.691l4.43,0.848c1.113,0.203,1.863,0.546,2.226,1.031c0.363,0.484,0.527,1.074,0.465,1.781
		c-0.062,0.547-0.242,0.973-0.566,1.298C320.345,267.602,319.943,267.867,319.458,268.047z" style="fill: rgb(0, 0, 0);"></path>
	<path class="st0" d="M345.474,275.129c1.375,1.859,3.578,3.012,6.653,3.481c0.699,0.098,1.16-0.031,1.758-0.027
		c0.082,0,0.18,0.019,0.258,0.019c0.094,0,0.161-0.027,0.25-0.027c0.55-0.024,1.25,0.086,1.699-0.027
		c0.711-0.172,1.402-0.637,2.098-1.039c0.359-0.168,0.664-0.246,1.066-0.446l-0.328,2.293l6.695,0.993l2.711-18.106
		c0.969-6.473-2.45-10.278-10.258-11.45c-2.285-0.343-4.206-0.343-5.785,0c-1.477,0.324-2.953,1.102-4.43,2.262
		c-0.035,0.028-0.078,0.043-0.114,0.07l0.004,0.004c-0.047,0.035-0.09,0.054-0.137,0.09l3.394,4.528l0.184,0.266
		c0.004-0.004,0.008-0.004,0.008-0.004l0.098,0.129c0.871-0.73,1.718-1.234,2.55-1.477c0.828-0.266,1.859-0.285,3.094-0.102
		c1.821,0.262,3.074,0.809,3.762,1.618c0.688,0.789,0.934,1.961,0.711,3.48l-0.203,1.356l-6.394-0.954
		c-0.754-0.113-1.344,0.008-2.023,0c-0.086,0-0.184-0.019-0.27-0.019c-0.086,0-0.156,0.019-0.242,0.019
		c-0.582,0.02-1.266-0.098-1.793,0c-1.254,0.246-2.328,0.668-3.195,1.278c-0.89,0.606-1.598,1.351-2.125,2.266
		c-0.528,0.91-0.871,1.922-1.051,3.012c-0.183,1.214-0.164,2.386,0.078,3.5C344.419,273.246,344.845,274.238,345.474,275.129z
		 M351.33,268.019c0.714-0.992,2.015-1.374,3.953-1.086l5.222,0.77l-0.226,1.477c-0.141,0.89-0.32,1.598-0.562,2.105
		c-0.246,0.528-0.566,0.93-1.015,1.234c-0.688,0.465-1.352,0.727-2,0.809c-0.668,0.062-1.418,0.02-2.266-0.102
		c-1.438-0.222-2.45-0.648-3.035-1.316c-0.586-0.668-0.809-1.477-0.668-2.426c0.058-0.382,0.203-0.675,0.339-0.976
		C351.154,268.34,351.224,268.16,351.33,268.019z" style="fill: rgb(0, 0, 0);"></path>
	<path class="st0" d="M177.482,293.617c-2.222,0.954-4.226,2.29-6.008,4.028c-1.312,1.293-2.304,2.648-3.015,4.046
		c-0.707,1.414-1.211,2.934-1.516,4.614c-0.324,1.656-0.507,3.477-0.586,5.461c-0.062,1.981-0.102,4.207-0.102,6.656
		c0,2.469,0.039,4.692,0.102,6.676c0.078,1.981,0.262,3.801,0.586,5.461c0.305,1.68,0.809,3.195,1.516,4.614
		c0.711,1.394,1.703,2.75,3.015,4.046c1.782,1.738,3.786,3.074,6.008,4.024c2.207,0.93,4.797,1.418,7.75,1.418
		c2.75,0,5.32-0.426,7.706-1.234c2.387-0.832,4.672-2.367,6.86-4.633c1.878-1.942,3.152-4.106,3.863-6.535
		c0.707-2.406,1.05-5.484,1.05-9.183v-7.547h-19.48v8.266v0.051l0,0v0.16h9.488v1.882c0,1.356-0.183,2.61-0.547,3.742
		c-0.363,1.133-0.949,2.184-1.781,3.137c-0.809,0.93-1.821,1.637-3.035,2.141c-1.211,0.508-2.59,0.77-4.125,0.77
		c-1.398,0-2.629-0.242-3.703-0.726c-1.051-0.489-1.985-1.133-2.75-1.966c-0.488-0.523-0.871-1.133-1.195-1.797
		c-0.305-0.687-0.566-1.558-0.75-2.609c-0.199-1.074-0.344-2.41-0.402-4.028c-0.082-1.621-0.122-3.66-0.122-6.129
		c0-2.449,0.039-4.492,0.122-6.109c0.058-1.622,0.203-2.954,0.402-4.028c0.183-1.05,0.445-1.922,0.75-2.57
		c0.324-0.645,0.707-1.234,1.195-1.778c0.766-0.813,1.699-1.477,2.75-1.985c1.074-0.503,2.305-0.77,3.703-0.77
		c5.015,0,8.109,2.508,9.266,7.547h8.703l1.273,0.023c0-0.007-0.003-0.015-0.003-0.023h0.16c-0.321-2.183-0.969-4.25-1.898-6.23
		c-0.954-1.984-2.227-3.742-3.805-5.262c-1.598-1.516-3.539-2.73-5.805-3.66c-2.266-0.91-4.898-1.375-7.89-1.375
		C182.279,292.203,179.689,292.687,177.482,293.617z" style="fill: rgb(0, 0, 0);"></path>
	<path class="st0" d="M213.959,306.305c-0.324,1.656-0.527,3.477-0.586,5.461c-0.082,1.981-0.102,4.207-0.102,6.656
		c0,2.469,0.02,4.692,0.102,6.676c0.059,1.981,0.262,3.801,0.586,5.461c0.305,1.68,0.809,3.195,1.515,4.614
		c0.688,1.394,1.699,2.75,2.997,4.046c1.738,1.738,3.742,3.074,5.988,4.024c2.242,0.93,4.851,1.418,7.847,1.418
		c2.997,0,5.606-0.488,7.829-1.418c2.226-0.95,4.206-2.286,5.949-4.024c1.293-1.297,2.305-2.652,2.992-4.046
		c0.711-1.418,1.215-2.934,1.559-4.614c0.343-1.66,0.546-3.48,0.629-5.461c0.058-1.984,0.098-4.207,0.098-6.676
		c0-2.449-0.039-4.675-0.098-6.656c-0.082-1.984-0.286-3.805-0.629-5.461c-0.344-1.68-0.848-3.199-1.559-4.614
		c-0.687-1.398-1.699-2.754-2.992-4.046c-1.742-1.738-3.722-3.074-5.949-4.028c-2.223-0.93-4.832-1.414-7.829-1.414
		c-2.996,0-5.605,0.484-7.847,1.414c-2.246,0.954-4.25,2.29-5.988,4.028c-1.298,1.293-2.309,2.648-2.997,4.046
		C214.767,303.106,214.263,304.625,213.959,306.305z M228.583,301.953c1.094-0.503,2.328-0.77,3.722-0.77
		c1.418,0,2.653,0.266,3.742,0.77c1.074,0.508,1.985,1.172,2.711,1.985c0.484,0.543,0.89,1.133,1.195,1.778
		c0.32,0.648,0.566,1.519,0.77,2.57c0.18,1.074,0.32,2.406,0.422,4.028c0.102,1.617,0.141,3.66,0.141,6.109
		c0,2.469-0.039,4.508-0.141,6.129c-0.102,1.618-0.242,2.954-0.422,3.985c-0.203,1.031-0.45,1.882-0.77,2.527
		c-0.305,0.649-0.711,1.258-1.195,1.782c-0.726,0.828-1.637,1.496-2.711,2.023c-1.09,0.547-2.324,0.809-3.742,0.809
		c-1.394,0-2.629-0.262-3.722-0.809c-1.094-0.527-2.023-1.195-2.793-2.023c-0.485-0.524-0.886-1.133-1.191-1.782
		c-0.325-0.645-0.566-1.496-0.77-2.527c-0.184-1.031-0.325-2.367-0.383-3.985c-0.082-1.621-0.121-3.66-0.121-6.129
		c0-2.449,0.039-4.492,0.121-6.109c0.058-1.622,0.199-2.954,0.383-4.028c0.203-1.05,0.445-1.922,0.77-2.57
		c0.305-0.645,0.706-1.234,1.191-1.778C226.56,303.125,227.49,302.461,228.583,301.953z" style="fill: rgb(0, 0, 0);"></path>
	<path class="st0" d="M265.118,297.645c-1.293,1.293-2.305,2.648-2.992,4.046c-0.707,1.414-1.215,2.934-1.52,4.614
		c-0.324,1.656-0.523,3.477-0.586,5.461c-0.082,1.981-0.102,4.207-0.102,6.656c0,2.469,0.019,4.692,0.102,6.676
		c0.062,1.981,0.262,3.801,0.586,5.461c0.305,1.68,0.813,3.195,1.52,4.614c0.687,1.394,1.699,2.75,2.992,4.046
		c1.738,1.738,3.742,3.074,5.988,4.024c2.246,0.93,4.856,1.418,7.852,1.418c2.992,0,5.602-0.488,7.828-1.418
		c2.222-0.95,4.207-2.286,5.946-4.024c1.297-1.297,2.308-2.652,2.996-4.046c0.707-1.418,1.214-2.934,1.558-4.614
		c0.344-1.66,0.543-3.48,0.625-5.461c0.062-1.984,0.102-4.207,0.102-6.676c0-2.449-0.039-4.675-0.102-6.656
		c-0.082-1.984-0.281-3.805-0.625-5.461c-0.344-1.68-0.851-3.199-1.558-4.614c-0.688-1.398-1.699-2.754-2.996-4.046
		c-1.738-1.738-3.723-3.074-5.946-4.028c-2.226-0.93-4.836-1.414-7.828-1.414c-2.996,0-5.606,0.484-7.852,1.414
		C268.861,294.57,266.857,295.906,265.118,297.645z M275.232,301.953c1.094-0.503,2.328-0.77,3.726-0.77
		c1.394,0,2.648,0.266,3.742,0.77c1.07,0.508,1.98,1.172,2.71,1.985c0.485,0.543,0.867,1.133,1.192,1.778
		c0.324,0.648,0.566,1.519,0.769,2.57c0.18,1.074,0.325,2.406,0.426,4.028c0.098,1.617,0.14,3.66,0.14,6.109
		c0,2.469-0.042,4.508-0.14,6.129c-0.102,1.618-0.246,2.954-0.426,3.985c-0.202,1.031-0.445,1.882-0.769,2.527
		c-0.325,0.649-0.707,1.258-1.192,1.782c-0.73,0.828-1.641,1.496-2.71,2.023c-1.094,0.547-2.348,0.809-3.742,0.809
		c-1.398,0-2.633-0.262-3.726-0.809c-1.09-0.527-2.02-1.195-2.79-2.023c-0.484-0.524-0.89-1.133-1.195-1.782
		c-0.32-0.645-0.566-1.496-0.766-2.527c-0.183-1.031-0.324-2.367-0.386-3.985c-0.082-1.621-0.122-3.66-0.122-6.129
		c0-2.449,0.039-4.492,0.122-6.109c0.062-1.622,0.203-2.954,0.386-4.028c0.199-1.05,0.446-1.922,0.766-2.57
		c0.305-0.645,0.711-1.234,1.195-1.778C273.212,303.125,274.142,302.461,275.232,301.953z" style="fill: rgb(0, 0, 0);"></path>
	<path class="st0" d="M308.29,292.649v51.566h18.633c3.519,0,6.531-0.61,9.043-1.801c2.507-1.215,4.691-3.118,6.531-5.727
		c0.77-1.113,1.374-2.285,1.843-3.519c0.446-1.234,0.79-2.59,0.969-4.047c0.203-1.476,0.325-3.094,0.363-4.855
		c0.043-1.758,0.082-3.699,0.082-5.844c0-2.125-0.039-4.066-0.082-5.828c-0.038-1.758-0.16-3.378-0.363-4.855
		c-0.179-1.477-0.523-2.813-0.969-4.047c-0.469-1.23-1.074-2.406-1.843-3.519c-1.84-2.61-4.024-4.512-6.531-5.722
		c-2.512-1.196-5.524-1.801-9.043-1.801H308.29z M318.365,335.23v-33.602h7.687c3.317,0,5.824,1.051,7.523,3.176
		c0.489,0.586,0.852,1.234,1.133,1.965c0.266,0.726,0.469,1.598,0.61,2.648c0.141,1.032,0.242,2.286,0.282,3.762
		c0.062,1.476,0.082,3.218,0.082,5.242c0,2.043-0.019,3.782-0.082,5.258c-0.039,1.476-0.141,2.73-0.282,3.762
		c-0.141,1.054-0.344,1.922-0.61,2.652c-0.281,0.726-0.644,1.375-1.133,1.961c-1.699,2.126-4.206,3.176-7.523,3.176H318.365z" style="fill: rgb(0, 0, 0);"></path>
	<path class="st0" d="M135.263,309.278c0.242,0.102,0.382,0.363,0.363,0.625l-0.625,5.504c-0.063,0.586,0.668,0.91,1.05,0.484
		l3.742-4.086c0.183-0.203,0.465-0.262,0.707-0.141l5.038,2.286c0.547,0.242,1.09-0.344,0.79-0.848l-2.73-4.836
		c-0.122-0.222-0.082-0.508,0.078-0.707l3.766-4.09c0.383-0.446,0-1.133-0.586-1.008l-5.422,1.09
		c-0.266,0.063-0.528-0.058-0.668-0.281l-2.73-4.836c-0.286-0.504-1.074-0.344-1.133,0.242l-0.63,5.504
		c-0.019,0.262-0.222,0.484-0.484,0.523l-5.422,1.114c-0.59,0.121-0.688,0.91-0.145,1.152L135.263,309.278z" style="fill: rgb(0, 0, 0);"></path>
	<path class="st0" d="M364.568,303.469l3.742,4.09c0.184,0.199,0.203,0.485,0.082,0.707l-2.73,4.836
		c-0.282,0.504,0.242,1.09,0.789,0.848l5.039-2.286c0.242-0.121,0.523-0.062,0.707,0.141l3.742,4.086
		c0.406,0.426,1.133,0.102,1.051-0.484l-0.625-5.504c-0.02-0.262,0.121-0.523,0.363-0.625l5.035-2.309
		c0.546-0.242,0.445-1.031-0.122-1.152l-5.441-1.114c-0.262-0.039-0.446-0.262-0.485-0.523l-0.625-5.504
		c-0.062-0.586-0.852-0.746-1.137-0.242l-2.73,4.836c-0.121,0.222-0.402,0.344-0.645,0.281l-5.442-1.09
		C364.548,302.336,364.166,303.023,364.568,303.469z" style="fill: rgb(0, 0, 0);"></path>
	<path class="st0" d="M243.635,362.156c-0.102-0.867-0.301-1.679-0.566-2.406c-0.282-0.727-0.626-1.414-1.094-2.063
		c-1.09-1.538-2.363-2.671-3.843-3.378c-1.477-0.707-3.274-1.074-5.34-1.074h-11.004v30.449h11.004c2.066,0,3.863-0.363,5.34-1.074
		c1.48-0.707,2.754-1.84,3.843-3.379c0.469-0.645,0.813-1.355,1.094-2.062c0.266-0.726,0.465-1.535,0.566-2.406
		c0.121-0.871,0.203-1.82,0.222-2.851c0.019-1.055,0.039-2.207,0.039-3.461c0-1.254-0.02-2.387-0.039-3.438
		C243.838,363.977,243.755,363.027,243.635,362.156z M237.384,375.348c-0.16,0.426-0.386,0.808-0.668,1.152
		c-0.992,1.254-2.488,1.883-4.449,1.883h-4.535v-19.848h4.535c1.961,0,3.457,0.629,4.449,1.882c0.282,0.344,0.508,0.727,0.668,1.153
		s0.286,0.953,0.363,1.558c0.082,0.629,0.141,1.355,0.164,2.226c0.039,0.867,0.039,1.898,0.039,3.094c0,1.214,0,2.246-0.039,3.113
		c-0.023,0.871-0.082,1.602-0.164,2.226C237.67,374.398,237.544,374.922,237.384,375.348z" style="fill: rgb(0, 0, 0);"></path>
	<path class="st0" d="M256.907,361.145c-1.863,0-3.378,0.222-4.594,0.691c-1.121,0.414-2.179,1.199-3.21,2.278
		c-0.032,0.027-0.063,0.046-0.098,0.074l0.008,0.008c-0.039,0.039-0.078,0.062-0.117,0.106l3.179,3.149l0.219,0.226
		c0,0,0.004-0.004,0.008-0.004l0.113,0.11c0.586-0.688,1.215-1.196,1.84-1.477c0.629-0.305,1.438-0.465,2.43-0.465
		c1.477,0,2.547,0.281,3.195,0.847c0.625,0.547,0.95,1.438,0.95,2.672v1.114h-5.18c-1.293,0-2.446,0.16-3.418,0.504
		c-0.969,0.343-1.758,0.812-2.387,1.398c-0.625,0.586-1.09,1.274-1.418,2.042c-0.301,0.79-0.465,1.618-0.465,2.508
		c0,0.992,0.164,1.922,0.465,2.77c0.328,0.871,0.77,1.602,1.378,2.226c1.313,1.317,3.196,1.962,5.684,1.962
		c1.274,0,2.328-0.161,3.137-0.504c0.535-0.23,1.035-0.676,1.543-1.074c0.266-0.164,0.488-0.27,0.781-0.454v1.832h5.266h0.016l0,0
		h0.16v-14.667C266.392,363.778,263.216,361.145,256.907,361.145z M256.685,379.351c-1.176,0-2.023-0.222-2.57-0.664
		c-0.546-0.469-0.809-1.074-0.809-1.843c0-1.719,1.09-2.57,3.298-2.57h4.226v1.195c0,0.707-0.059,1.297-0.18,1.738
		c-0.145,0.426-0.367,0.789-0.668,1.094c-0.488,0.446-0.992,0.73-1.5,0.871C257.958,379.293,257.372,379.351,256.685,379.351z" style="fill: rgb(0, 0, 0);"></path>
	<path class="st0" d="M284.357,361.41l-2.477,7.652l-2.039,5.906l-4.566-13.558h-4.246l-1.454-0.055l0.024,0.055h-0.172l7.61,20.695
		l-0.934,2.73c-0.301,0.828-0.626,1.375-1.012,1.617c-0.383,0.266-0.969,0.387-1.782,0.387h-1.109v-0.004v0.004h-0.164v5.015h2.187
		c0.91,0,1.758-0.14,2.566-0.363c0.832-0.242,1.558-0.71,2.207-1.355c0.625-0.629,1.191-1.578,1.679-2.875l7.055-19.145l2.472-6.546
		h-0.058l0.058-0.16H284.357z" style="fill: rgb(0, 0, 0);"></path>
	<polygon class="st0" points="210.071,365.715 210.075,365.695 210.071,365.695 210.071,365.535 163.544,365.535 163.544,371.383 
		210.071,371.383 	" style="fill: rgb(0, 0, 0);"></polygon>
	<polygon class="st0" points="301.939,371.222 301.939,371.383 348.467,371.383 348.467,365.535 301.939,365.535 301.939,371.203 
		301.935,371.222 	" style="fill: rgb(0, 0, 0);"></polygon>
</g>
</svg>
