<!--?xml version="1.0" encoding="utf-8"?-->
<!-- Generator: Adobe Illustrator 19.1.1, SVG Export Plug-In . SVG Version: 6.00 Build 0)  -->
<svg version="1.1" id="_x31_0" xmlns="http://www.w3.org/2000/svg" xmlns:xlink="http://www.w3.org/1999/xlink" x="0px" y="0px" viewBox="0 0 512 512" style="width: 256px; height: 256px; opacity: 1;" xml:space="preserve">
<style type="text/css">
	.st0{fill:#374149;}
</style>
<g>
	<path class="st0" d="M431.465,452.621c0.039-0.691,0.098-1.374,0.133-2.078c0.066-1.594,0.082-3.164,0.106-4.742
		c0.031-1.621,0.117-3.203,0.106-4.855c-0.02,0.007-0.039,0.011-0.055,0.019c-0.004-0.054,0-0.114,0-0.168
		c-14.906,5.508-32.191,10.02-50.328,11.11c-0.309,0.019-0.613,0.031-0.922,0.046c-2.426,0.13-4.867,0.215-7.321,0.215h-1.324
		h-2.942h-6.214h-6.215h-27.461h-6.211h-6.214H195.402h-6.215h-6.214h-27.442h-6.215h-6.21h-2.946h-1.324
		c-2.434,0-4.848-0.086-7.254-0.211c-0.347-0.019-0.695-0.035-1.046-0.054c-4.863-0.297-9.664-0.84-14.375-1.582
		c-0.289-0.046-0.57-0.082-0.859-0.129c-3.691-0.602-7.305-1.355-10.867-2.175c-1.762-0.414-3.52-0.817-5.293-1.29
		c-1.817-0.476-3.626-0.957-5.398-1.476c-4.418-1.325-8.856-2.77-13.336-4.473c0,0.019,0,0.035,0,0.054
		c-0.051-0.019-0.11-0.039-0.16-0.058c-0.333,23.05,3.644,48.214,18.722,71.226c31.293-0.539,64.805-4.39,64.805-4.39
		c19.199,0.558,73.004,0,92.226,0c19.218,0,73.027,0.558,92.246,0c0,0,33.492,3.851,64.785,4.39
		c10.754-16.394,15.797-33.886,17.722-50.942c0.004-0.031,0.008-0.062,0.012-0.094C431.078,458.168,431.309,455.386,431.465,452.621
		z" style="fill: rgb(128, 128, 0);"></path>
	<rect x="329.015" y="278.606" class="st0" width="27.465" height="150.778" style="fill: rgb(128, 128, 0);"></rect>
	<rect x="155.519" y="278.606" class="st0" width="27.446" height="150.778" style="fill: rgb(128, 128, 0);"></rect>
	<path class="st0" d="M364.949,219.309h15.454c2.445,0,4.43,1.992,4.43,4.453v50.414c0,2.465-1.985,4.43-4.43,4.43h-11.496v150.778
		h4.27c20.562,0,40.57-5.734,56.851-12.383c-1.867-15.039-4.703-28.191-6.027-37.863l23.07-196.008l-8.242-22.515l-20.316-4.391
		h-54.954l-9.718-0.027l0.007,0.027h-0.164L364.949,219.309z" style="fill: rgb(128, 128, 0);"></path>
	<path class="st0" d="M81.973,416.957c16.305,6.668,36.328,12.426,56.851,12.426h4.27V278.606h-11.515
		c-2.442,0-4.434-1.965-4.434-4.43v-50.414c0-2.461,1.992-4.453,4.434-4.453h15.449l9.566-53.547l1.703-9.375h-0.027l0.027-0.164
		H93.469l-20.317,4.391l-8.222,22.515l23.05,196.008C86.656,388.809,83.84,401.942,81.973,416.957z" style="fill: rgb(128, 128, 0);"></path>
	<path class="st0" d="M316.59,278.606h-12.238c-2.445,0-4.434-1.965-4.434-4.43v-50.414c0-2.461,1.989-4.453,4.434-4.453h6.219
		l1.098,0.031l-0.004-0.031h0.164l-11.289-63.086h-89.098l-9.578,53.535l-1.711,9.394h0.028l-0.028,0.157h7.477
		c2.465,0,4.453,1.992,4.453,4.453v50.414c0,2.465-1.988,4.43-4.453,4.43H195.39v150.778H316.59V278.606z M284.863,317.274v6.214
		h-11.539v-6.214H284.863z M261.77,317.274v6.214h-11.558v-6.214H261.77z M238.676,317.274v6.214h-11.555v-6.214H238.676z
		 M215.582,317.274v6.214h-11.554v-6.214H215.582z M307.953,317.274v6.214h-11.535v-6.214H307.953z" style="fill: rgb(128, 128, 0);"></path>
	<path class="st0" d="M187.543,219.309l11.266-63.086L219.27,41.898c8.015-6.832,24.398-14.457,36.718-14.457
		c12.242,0,28.688,7.664,36.742,14.476l20.446,114.305l11.285,63.086h27.879l-11.266-63.086l-22.93-128.199l-3.231-3.086
		C311.809,21.953,283.762,0,255.988,0c-27.774,0-55.793,21.953-58.898,24.938l-3.234,3.086L170.93,156.222l-9.562,53.551
		l-1.703,9.378h0.027l-0.027,0.157H187.543z" style="fill: rgb(128, 128, 0);"></path>
	<path class="st0" d="M198.512,231.098H142.98c-2.554,0-4.64,1.84-4.64,4.16v31.426c2.367,1.367,2.961,1.711,5.32,3.078
		l56.492-32.531C199.285,233.981,199.379,234.348,198.512,231.098z" style="fill: rgb(128, 128, 0);"></path>
	<path class="st0" d="M372.019,231.098h-55.531c-2.558,0-4.641,1.84-4.641,4.16v31.426c2.367,1.367,2.958,1.711,5.321,3.078
		l56.492-32.531C372.793,233.981,372.886,234.348,372.019,231.098z" style="fill: rgb(128, 128, 0);"></path>
</g>
</svg>
